<?xml version="1.0" encoding="UTF-8" standalone="no"?>
<!-- Created with Inkscape (http://www.inkscape.org/) -->

<svg
   width="1600"
   height="600"
   viewBox="0 0 423.33332 158.75"
   version="1.1"
   id="svg1"
   sodipodi:docname="armin_canvas.svg"
   inkscape:version="1.4.3 (0d15f750, 2025-12-25)"
   xmlns:inkscape="http://www.inkscape.org/namespaces/inkscape"
   xmlns:sodipodi="http://sodipodi.sourceforge.net/DTD/sodipodi-0.dtd"
   xmlns="http://www.w3.org/2000/svg"
   xmlns:svg="http://www.w3.org/2000/svg">
  <sodipodi:namedview
     id="namedview1"
     pagecolor="#ffffff"
     bordercolor="#000000"
     borderopacity="0.25"
     inkscape:showpageshadow="2"
     inkscape:pageopacity="0.0"
     inkscape:pagecheckerboard="0"
     inkscape:deskcolor="#d1d1d1"
     inkscape:document-units="mm"
     showgrid="true"
     inkscape:zoom="0.87581892"
     inkscape:cx="557.1928"
     inkscape:cy="279.1673"
     inkscape:window-width="2464"
     inkscape:window-height="1186"
     inkscape:window-x="0"
     inkscape:window-y="25"
     inkscape:window-maximized="0"
     inkscape:current-layer="layer3">
    <inkscape:grid
       id="grid1"
       units="mm"
       originx="0"
       originy="0"
       spacingx="0.99999997"
       spacingy="1"
       empcolor="#0099e5"
       empopacity="0.30196078"
       color="#0099e5"
       opacity="0.14901961"
       empspacing="5"
       enabled="true"
       visible="true" />
  </sodipodi:namedview>
  <defs
     id="defs1">
    <linearGradient
       id="linearGradient1"
       inkscape:swatch="gradient">
      <stop
         style="stop-color:#000000;stop-opacity:1;"
         offset="0"
         id="stop1" />
      <stop
         style="stop-color:#000000;stop-opacity:0;"
         offset="1"
         id="stop2" />
    </linearGradient>
  </defs>
  <g
     inkscape:label="Ebene 1"
     inkscape:groupmode="layer"
     id="layer1">
    <rect
       style="fill:none;fill-opacity:1;stroke:#000000;stroke-width:0.383905;stroke-opacity:1"
       id="rect1"
       width="422.94943"
       height="78.991096"
       x="0.1919519"
       y="79.566956"
       inkscape:label="rect1" />
  </g>
  <g
     inkscape:groupmode="layer"
     id="layer2"
     inkscape:label="Ebene 2">
    <rect
       style="fill:none;fill-opacity:1;stroke:#000000;stroke-width:0.309387;stroke-opacity:1"
       id="rect2"
       width="65.836449"
       height="79.065613"
       x="0.15469329"
       y="79.529694" />
    <rect
       style="fill:none;fill-opacity:1;stroke:#000000;stroke-width:0.262491;stroke-opacity:1"
       id="rect2-8"
       width="47.362507"
       height="79.112511"
       x="66.277077"
       y="79.506248" />
    <rect
       style="fill:none;fill-opacity:1;stroke:#000000;stroke-width:0.269691;stroke-opacity:1"
       id="rect2-8-1"
       width="50.001141"
       height="79.105309"
       x="113.90568"
       y="79.50985" />
    <rect
       style="fill:none;fill-opacity:1;stroke:#000000;stroke-width:0.276704;stroke-opacity:1"
       id="rect2-8-1-9"
       width="52.639961"
       height="79.098297"
       x="164.18002"
       y="79.513351" />
    <rect
       style="fill:none;fill-opacity:1;stroke:#000000;stroke-width:0.327429;stroke-opacity:1"
       id="rect2-8-1-9-4"
       width="73.755905"
       height="79.047569"
       x="217.12204"
       y="79.538712" />
    <rect
       style="fill:none;fill-opacity:1;stroke:#000000;stroke-width:0.239592;stroke-opacity:1"
       id="rect2-8-1-9-4-1"
       width="39.447906"
       height="79.135406"
       x="291.16147"
       y="79.494797" />
    <rect
       style="fill:none;fill-opacity:1;stroke:#000000;stroke-width:0.276705;stroke-opacity:1"
       id="rect2-8-1-9-4-1-2"
       width="52.639961"
       height="79.098297"
       x="330.86752"
       y="79.513351" />
    <rect
       style="fill:none;fill-opacity:1;stroke:#000000;stroke-width:0.239592;stroke-opacity:1"
       id="rect2-8-1-9-4-1-2-1"
       width="39.447906"
       height="79.135406"
       x="383.76562"
       y="79.494797" />
  </g>
  <g
     inkscape:groupmode="layer"
     id="layer3"
     inkscape:label="Ebene 3">
    <g
       id="g13"
       transform="translate(-0.13789865,80.292875)">
      <g
         id="g4">
        <rect
           style="fill:none;fill-opacity:1;stroke:#000000;stroke-width:0.271379;stroke-opacity:1"
           id="rect4"
           width="10.311954"
           height="10.311954"
           x="9.8276854"
           y="9.8276854" />
        <path
           style="fill:none;fill-opacity:1;stroke:#000000;stroke-width:0.261976;stroke-opacity:1"
           d="m 14.902968,9.6664737 0.08199,10.5812433"
           id="path4" />
        <path
           style="fill:none;fill-opacity:1;stroke:#000000;stroke-width:0.261976;stroke-opacity:1"
           d="M 20.245157,14.86928 9.6639136,14.95127"
           id="path4-7" />
      </g>
      <path
         style="fill:#00ffff;fill-opacity:1;stroke:#000000;stroke-width:0.160946;stroke-opacity:1"
         d="m 37.741776,46.795053 6.4e-5,-9.133686 h 8.986915 8.986915 l 0.111428,9.034907 c 0.06128,4.969199 0.08852,9.057819 0.06051,9.085822 -0.028,0.028 -4.122286,0.07245 -9.098407,0.09878 l -9.047492,0.04787 z"
         id="path10"
         transform="scale(0.26458333)" />
      <path
         style="fill:#00ffff;fill-opacity:1;stroke:#000000;stroke-width:0.160946;stroke-opacity:1"
         d="m 57.055141,53.175694 c -1.21e-4,-1.495516 -0.04811,-5.598041 -0.106635,-9.116723 l -0.106414,-6.397604 h 9.36103 9.36103 v 9.012976 9.012977 l -8.16801,0.0011 c -4.492405,6.29e-4 -8.656883,0.04731 -9.254395,0.103746 l -1.086386,0.102603 z"
         id="path11"
         transform="scale(0.26458333)" />
      <path
         style="fill:#00ffff;fill-opacity:1;stroke:#000000;stroke-width:0.160946;stroke-opacity:1"
         d="m 57.162215,69.086075 c -0.05853,-3.518682 -0.106513,-7.671709 -0.106634,-9.228948 l -2.2e-4,-2.831344 3.017738,-0.105466 c 1.659755,-0.05801 5.824233,-0.10567 9.254395,-0.10592 l 6.236658,-4.55e-4 v 9.334869 9.334868 H 66.416391 57.26863 Z"
         id="path12"
         transform="scale(0.26458333)" />
      <path
         style="fill:#00ffff;fill-opacity:1;stroke:#000000;stroke-width:0.160946;stroke-opacity:1"
         d="m 37.74184,66.333857 v -9.149822 l 1.473239,-0.104574 c 0.810282,-0.05752 4.902334,-0.104573 9.09345,-0.104573 h 7.62021 l 3.3e-4,5.029563 c 1.8e-4,2.766259 0.04802,6.930737 0.106301,9.254395 l 0.105974,4.224833 H 46.941592 37.74184 Z"
         id="path13"
         transform="scale(0.26458333)" />
    </g>
    <g
       id="g13-11"
       transform="translate(64.420435,80.292875)">
      <g
         id="g4-6">
        <rect
           style="fill:none;fill-opacity:1;stroke:#000000;stroke-width:0.271379;stroke-opacity:1"
           id="rect4-1"
           width="10.311954"
           height="10.311954"
           x="9.8276854"
           y="9.8276854" />
        <path
           style="fill:none;fill-opacity:1;stroke:#000000;stroke-width:0.261976;stroke-opacity:1"
           d="m 14.902968,9.6664737 0.08199,10.5812433"
           id="path4-18" />
        <path
           style="fill:none;fill-opacity:1;stroke:#000000;stroke-width:0.261976;stroke-opacity:1"
           d="M 20.245157,14.86928 9.6639136,14.95127"
           id="path4-7-11" />
      </g>
      <path
         style="fill:#00ffff;fill-opacity:1;stroke:#000000;stroke-width:0.160946;stroke-opacity:1"
         d="m 37.741776,46.795053 6.4e-5,-9.133686 h 8.986915 8.986915 l 0.111428,9.034907 c 0.06128,4.969199 0.08852,9.057819 0.06051,9.085822 -0.028,0.028 -4.122286,0.07245 -9.098407,0.09878 l -9.047492,0.04787 z"
         id="path10-5"
         transform="scale(0.26458333)" />
      <path
         style="fill:#00ffff;fill-opacity:1;stroke:#000000;stroke-width:0.160946;stroke-opacity:1"
         d="m 57.055141,53.175694 c -1.21e-4,-1.495516 -0.04811,-5.598041 -0.106635,-9.116723 l -0.106414,-6.397604 h 9.36103 9.36103 v 9.012976 9.012977 l -8.16801,0.0011 c -4.492405,6.29e-4 -8.656883,0.04731 -9.254395,0.103746 l -1.086386,0.102603 z"
         id="path11-00"
         transform="scale(0.26458333)" />
      <path
         style="fill:#00ffff;fill-opacity:1;stroke:#000000;stroke-width:0.160946;stroke-opacity:1"
         d="m 57.162215,69.086075 c -0.05853,-3.518682 -0.106513,-7.671709 -0.106634,-9.228948 l -2.2e-4,-2.831344 3.017738,-0.105466 c 1.659755,-0.05801 5.824233,-0.10567 9.254395,-0.10592 l 6.236658,-4.55e-4 v 9.334869 9.334868 H 66.416391 57.26863 Z"
         id="path12-8"
         transform="scale(0.26458333)" />
      <path
         style="fill:#00ffff;fill-opacity:1;stroke:#000000;stroke-width:0.160946;stroke-opacity:1"
         d="m 37.74184,66.333857 v -9.149822 l 1.473239,-0.104574 c 0.810282,-0.05752 4.902334,-0.104573 9.09345,-0.104573 h 7.62021 l 3.3e-4,5.029563 c 1.8e-4,2.766259 0.04802,6.930737 0.106301,9.254395 l 0.105974,4.224833 H 46.941592 37.74184 Z"
         id="path13-37"
         transform="scale(0.26458333)" />
    </g>
    <g
       id="g13-11-3"
       transform="translate(85.587101,100.13662)">
      <g
         id="g4-6-7">
        <rect
           style="fill:none;fill-opacity:1;stroke:#000000;stroke-width:0.271379;stroke-opacity:1"
           id="rect4-1-7"
           width="10.311954"
           height="10.311954"
           x="9.8276854"
           y="9.8276854" />
        <path
           style="fill:none;fill-opacity:1;stroke:#000000;stroke-width:0.261976;stroke-opacity:1"
           d="m 14.902968,9.6664737 0.08199,10.5812433"
           id="path4-18-5" />
        <path
           style="fill:none;fill-opacity:1;stroke:#000000;stroke-width:0.261976;stroke-opacity:1"
           d="M 20.245157,14.86928 9.6639136,14.95127"
           id="path4-7-11-1" />
      </g>
      <path
         style="fill:#00ffff;fill-opacity:1;stroke:#000000;stroke-width:0.160946;stroke-opacity:1"
         d="m 37.741776,46.795053 6.4e-5,-9.133686 h 8.986915 8.986915 l 0.111428,9.034907 c 0.06128,4.969199 0.08852,9.057819 0.06051,9.085822 -0.028,0.028 -4.122286,0.07245 -9.098407,0.09878 l -9.047492,0.04787 z"
         id="path10-5-2"
         transform="scale(0.26458333)" />
      <path
         style="fill:#00ffff;fill-opacity:1;stroke:#000000;stroke-width:0.160946;stroke-opacity:1"
         d="m 57.055141,53.175694 c -1.21e-4,-1.495516 -0.04811,-5.598041 -0.106635,-9.116723 l -0.106414,-6.397604 h 9.36103 9.36103 v 9.012976 9.012977 l -8.16801,0.0011 c -4.492405,6.29e-4 -8.656883,0.04731 -9.254395,0.103746 l -1.086386,0.102603 z"
         id="path11-00-6"
         transform="scale(0.26458333)" />
      <path
         style="fill:#00ffff;fill-opacity:1;stroke:#000000;stroke-width:0.160946;stroke-opacity:1"
         d="m 57.162215,69.086075 c -0.05853,-3.518682 -0.106513,-7.671709 -0.106634,-9.228948 l -2.2e-4,-2.831344 3.017738,-0.105466 c 1.659755,-0.05801 5.824233,-0.10567 9.254395,-0.10592 l 6.236658,-4.55e-4 v 9.334869 9.334868 H 66.416391 57.26863 Z"
         id="path12-8-6"
         transform="scale(0.26458333)" />
      <path
         style="fill:#00ffff;fill-opacity:1;stroke:#000000;stroke-width:0.160946;stroke-opacity:1"
         d="m 37.74184,66.333857 v -9.149822 l 1.473239,-0.104574 c 0.810282,-0.05752 4.902334,-0.104573 9.09345,-0.104573 h 7.62021 l 3.3e-4,5.029563 c 1.8e-4,2.766259 0.04802,6.930737 0.106301,9.254395 l 0.105974,4.224833 H 46.941592 37.74184 Z"
         id="path13-37-5"
         transform="scale(0.26458333)" />
    </g>
    <g
       id="g13-11-3-3"
       transform="translate(113.36835,75.001208)">
      <g
         id="g4-6-7-4">
        <rect
           style="fill:none;fill-opacity:1;stroke:#000000;stroke-width:0.271379;stroke-opacity:1"
           id="rect4-1-7-8"
           width="10.311954"
           height="10.311954"
           x="9.8276854"
           y="9.8276854" />
        <path
           style="fill:none;fill-opacity:1;stroke:#000000;stroke-width:0.261976;stroke-opacity:1"
           d="m 14.902968,9.6664737 0.08199,10.5812433"
           id="path4-18-5-6" />
        <path
           style="fill:none;fill-opacity:1;stroke:#000000;stroke-width:0.261976;stroke-opacity:1"
           d="M 20.245157,14.86928 9.6639136,14.95127"
           id="path4-7-11-1-1" />
      </g>
      <path
         style="fill:#00ffff;fill-opacity:1;stroke:#000000;stroke-width:0.160946;stroke-opacity:1"
         d="m 37.741776,46.795053 6.4e-5,-9.133686 h 8.986915 8.986915 l 0.111428,9.034907 c 0.06128,4.969199 0.08852,9.057819 0.06051,9.085822 -0.028,0.028 -4.122286,0.07245 -9.098407,0.09878 l -9.047492,0.04787 z"
         id="path10-5-2-5"
         transform="scale(0.26458333)" />
      <path
         style="fill:#00ffff;fill-opacity:1;stroke:#000000;stroke-width:0.160946;stroke-opacity:1"
         d="m 57.055141,53.175694 c -1.21e-4,-1.495516 -0.04811,-5.598041 -0.106635,-9.116723 l -0.106414,-6.397604 h 9.36103 9.36103 v 9.012976 9.012977 l -8.16801,0.0011 c -4.492405,6.29e-4 -8.656883,0.04731 -9.254395,0.103746 l -1.086386,0.102603 z"
         id="path11-00-6-0"
         transform="scale(0.26458333)" />
      <path
         style="fill:#00ffff;fill-opacity:1;stroke:#000000;stroke-width:0.160946;stroke-opacity:1"
         d="m 57.162215,69.086075 c -0.05853,-3.518682 -0.106513,-7.671709 -0.106634,-9.228948 l -2.2e-4,-2.831344 3.017738,-0.105466 c 1.659755,-0.05801 5.824233,-0.10567 9.254395,-0.10592 l 6.236658,-4.55e-4 v 9.334869 9.334868 H 66.416391 57.26863 Z"
         id="path12-8-6-6"
         transform="scale(0.26458333)" />
      <path
         style="fill:#00ffff;fill-opacity:1;stroke:#000000;stroke-width:0.160946;stroke-opacity:1"
         d="m 37.74184,66.333857 v -9.149822 l 1.473239,-0.104574 c 0.810282,-0.05752 4.902334,-0.104573 9.09345,-0.104573 h 7.62021 l 3.3e-4,5.029563 c 1.8e-4,2.766259 0.04802,6.930737 0.106301,9.254395 l 0.105974,4.224833 H 46.941592 37.74184 Z"
         id="path13-37-5-5"
         transform="scale(0.26458333)" />
    </g>
    <g
       id="g13-11-3-3-9"
       transform="translate(139.82668,75.001208)">
      <g
         id="g4-6-7-4-5">
        <rect
           style="fill:none;fill-opacity:1;stroke:#000000;stroke-width:0.271379;stroke-opacity:1"
           id="rect4-1-7-8-7"
           width="10.311954"
           height="10.311954"
           x="9.8276854"
           y="9.8276854" />
        <path
           style="fill:none;fill-opacity:1;stroke:#000000;stroke-width:0.261976;stroke-opacity:1"
           d="m 14.902968,9.6664737 0.08199,10.5812433"
           id="path4-18-5-6-6" />
        <path
           style="fill:none;fill-opacity:1;stroke:#000000;stroke-width:0.261976;stroke-opacity:1"
           d="M 20.245157,14.86928 9.6639136,14.95127"
           id="path4-7-11-1-1-8" />
      </g>
      <path
         style="fill:#00ffff;fill-opacity:1;stroke:#000000;stroke-width:0.160946;stroke-opacity:1"
         d="m 37.741776,46.795053 6.4e-5,-9.133686 h 8.986915 8.986915 l 0.111428,9.034907 c 0.06128,4.969199 0.08852,9.057819 0.06051,9.085822 -0.028,0.028 -4.122286,0.07245 -9.098407,0.09878 l -9.047492,0.04787 z"
         id="path10-5-2-5-5"
         transform="scale(0.26458333)" />
      <path
         style="fill:#00ffff;fill-opacity:1;stroke:#000000;stroke-width:0.160946;stroke-opacity:1"
         d="m 57.055141,53.175694 c -1.21e-4,-1.495516 -0.04811,-5.598041 -0.106635,-9.116723 l -0.106414,-6.397604 h 9.36103 9.36103 v 9.012976 9.012977 l -8.16801,0.0011 c -4.492405,6.29e-4 -8.656883,0.04731 -9.254395,0.103746 l -1.086386,0.102603 z"
         id="path11-00-6-0-4"
         transform="scale(0.26458333)" />
      <path
         style="fill:#00ffff;fill-opacity:1;stroke:#000000;stroke-width:0.160946;stroke-opacity:1"
         d="m 57.162215,69.086075 c -0.05853,-3.518682 -0.106513,-7.671709 -0.106634,-9.228948 l -2.2e-4,-2.831344 3.017738,-0.105466 c 1.659755,-0.05801 5.824233,-0.10567 9.254395,-0.10592 l 6.236658,-4.55e-4 v 9.334869 9.334868 H 66.416391 57.26863 Z"
         id="path12-8-6-6-7"
         transform="scale(0.26458333)" />
      <path
         style="fill:#00ffff;fill-opacity:1;stroke:#000000;stroke-width:0.160946;stroke-opacity:1"
         d="m 37.74184,66.333857 v -9.149822 l 1.473239,-0.104574 c 0.810282,-0.05752 4.902334,-0.104573 9.09345,-0.104573 h 7.62021 l 3.3e-4,5.029563 c 1.8e-4,2.766259 0.04802,6.930737 0.106301,9.254395 l 0.105974,4.224833 H 46.941592 37.74184 Z"
         id="path13-37-5-5-9"
         transform="scale(0.26458333)" />
    </g>
    <g
       id="g13-11-3-3-9-7"
       transform="translate(113.36835,100.13662)">
      <g
         id="g4-6-7-4-5-0">
        <rect
           style="fill:none;fill-opacity:1;stroke:#000000;stroke-width:0.271379;stroke-opacity:1"
           id="rect4-1-7-8-7-4"
           width="10.311954"
           height="10.311954"
           x="9.8276854"
           y="9.8276854" />
        <path
           style="fill:none;fill-opacity:1;stroke:#000000;stroke-width:0.261976;stroke-opacity:1"
           d="m 14.902968,9.6664737 0.08199,10.5812433"
           id="path4-18-5-6-6-1" />
        <path
           style="fill:none;fill-opacity:1;stroke:#000000;stroke-width:0.261976;stroke-opacity:1"
           d="M 20.245157,14.86928 9.6639136,14.95127"
           id="path4-7-11-1-1-8-0" />
      </g>
      <path
         style="fill:#00ffff;fill-opacity:1;stroke:#000000;stroke-width:0.160946;stroke-opacity:1"
         d="m 37.741776,46.795053 6.4e-5,-9.133686 h 8.986915 8.986915 l 0.111428,9.034907 c 0.06128,4.969199 0.08852,9.057819 0.06051,9.085822 -0.028,0.028 -4.122286,0.07245 -9.098407,0.09878 l -9.047492,0.04787 z"
         id="path10-5-2-5-5-8"
         transform="scale(0.26458333)" />
      <path
         style="fill:#00ffff;fill-opacity:1;stroke:#000000;stroke-width:0.160946;stroke-opacity:1"
         d="m 57.055141,53.175694 c -1.21e-4,-1.495516 -0.04811,-5.598041 -0.106635,-9.116723 l -0.106414,-6.397604 h 9.36103 9.36103 v 9.012976 9.012977 l -8.16801,0.0011 c -4.492405,6.29e-4 -8.656883,0.04731 -9.254395,0.103746 l -1.086386,0.102603 z"
         id="path11-00-6-0-4-1"
         transform="scale(0.26458333)" />
      <path
         style="fill:#00ffff;fill-opacity:1;stroke:#000000;stroke-width:0.160946;stroke-opacity:1"
         d="m 57.162215,69.086075 c -0.05853,-3.518682 -0.106513,-7.671709 -0.106634,-9.228948 l -2.2e-4,-2.831344 3.017738,-0.105466 c 1.659755,-0.05801 5.824233,-0.10567 9.254395,-0.10592 l 6.236658,-4.55e-4 v 9.334869 9.334868 H 66.416391 57.26863 Z"
         id="path12-8-6-6-7-4"
         transform="scale(0.26458333)" />
      <path
         style="fill:#00ffff;fill-opacity:1;stroke:#000000;stroke-width:0.160946;stroke-opacity:1"
         d="m 37.74184,66.333857 v -9.149822 l 1.473239,-0.104574 c 0.810282,-0.05752 4.902334,-0.104573 9.09345,-0.104573 h 7.62021 l 3.3e-4,5.029563 c 1.8e-4,2.766259 0.04802,6.930737 0.106301,9.254395 l 0.105974,4.224833 H 46.941592 37.74184 Z"
         id="path13-37-5-5-9-8"
         transform="scale(0.26458333)" />
    </g>
    <g
       id="g13-11-3-3-9-7-9"
       transform="translate(139.82668,100.13662)">
      <g
         id="g4-6-7-4-5-0-8">
        <rect
           style="fill:none;fill-opacity:1;stroke:#000000;stroke-width:0.271379;stroke-opacity:1"
           id="rect4-1-7-8-7-4-4"
           width="10.311954"
           height="10.311954"
           x="9.8276854"
           y="9.8276854" />
        <path
           style="fill:none;fill-opacity:1;stroke:#000000;stroke-width:0.261976;stroke-opacity:1"
           d="m 14.902968,9.6664737 0.08199,10.5812433"
           id="path4-18-5-6-6-1-5" />
        <path
           style="fill:none;fill-opacity:1;stroke:#000000;stroke-width:0.261976;stroke-opacity:1"
           d="M 20.245157,14.86928 9.6639136,14.95127"
           id="path4-7-11-1-1-8-0-8" />
      </g>
      <path
         style="fill:#00ffff;fill-opacity:1;stroke:#000000;stroke-width:0.160946;stroke-opacity:1"
         d="m 37.741776,46.795053 6.4e-5,-9.133686 h 8.986915 8.986915 l 0.111428,9.034907 c 0.06128,4.969199 0.08852,9.057819 0.06051,9.085822 -0.028,0.028 -4.122286,0.07245 -9.098407,0.09878 l -9.047492,0.04787 z"
         id="path10-5-2-5-5-8-8"
         transform="scale(0.26458333)" />
      <path
         style="fill:#00ffff;fill-opacity:1;stroke:#000000;stroke-width:0.160946;stroke-opacity:1"
         d="m 57.055141,53.175694 c -1.21e-4,-1.495516 -0.04811,-5.598041 -0.106635,-9.116723 l -0.106414,-6.397604 h 9.36103 9.36103 v 9.012976 9.012977 l -8.16801,0.0011 c -4.492405,6.29e-4 -8.656883,0.04731 -9.254395,0.103746 l -1.086386,0.102603 z"
         id="path11-00-6-0-4-1-9"
         transform="scale(0.26458333)" />
      <path
         style="fill:#00ffff;fill-opacity:1;stroke:#000000;stroke-width:0.160946;stroke-opacity:1"
         d="m 57.162215,69.086075 c -0.05853,-3.518682 -0.106513,-7.671709 -0.106634,-9.228948 l -2.2e-4,-2.831344 3.017738,-0.105466 c 1.659755,-0.05801 5.824233,-0.10567 9.254395,-0.10592 l 6.236658,-4.55e-4 v 9.334869 9.334868 H 66.416391 57.26863 Z"
         id="path12-8-6-6-7-4-4"
         transform="scale(0.26458333)" />
      <path
         style="fill:#00ffff;fill-opacity:1;stroke:#000000;stroke-width:0.160946;stroke-opacity:1"
         d="m 37.74184,66.333857 v -9.149822 l 1.473239,-0.104574 c 0.810282,-0.05752 4.902334,-0.104573 9.09345,-0.104573 h 7.62021 l 3.3e-4,5.029563 c 1.8e-4,2.766259 0.04802,6.930737 0.106301,9.254395 l 0.105974,4.224833 H 46.941592 37.74184 Z"
         id="path13-37-5-5-9-8-7"
         transform="scale(0.26458333)" />
    </g>
    <g
       id="g13-11-3-3-9-7-9-5"
       transform="translate(165.3371,75.334541)">
      <g
         id="g4-6-7-4-5-0-8-3">
        <rect
           style="fill:none;fill-opacity:1;stroke:#000000;stroke-width:0.271379;stroke-opacity:1"
           id="rect4-1-7-8-7-4-4-8"
           width="10.311954"
           height="10.311954"
           x="9.8276854"
           y="9.8276854" />
        <path
           style="fill:none;fill-opacity:1;stroke:#000000;stroke-width:0.261976;stroke-opacity:1"
           d="m 14.902968,9.6664737 0.08199,10.5812433"
           id="path4-18-5-6-6-1-5-5" />
        <path
           style="fill:none;fill-opacity:1;stroke:#000000;stroke-width:0.261976;stroke-opacity:1"
           d="M 20.245157,14.86928 9.6639136,14.95127"
           id="path4-7-11-1-1-8-0-8-1" />
      </g>
      <path
         style="fill:#00ffff;fill-opacity:1;stroke:#000000;stroke-width:0.160946;stroke-opacity:1"
         d="m 37.741776,46.795053 6.4e-5,-9.133686 h 8.986915 8.986915 l 0.111428,9.034907 c 0.06128,4.969199 0.08852,9.057819 0.06051,9.085822 -0.028,0.028 -4.122286,0.07245 -9.098407,0.09878 l -9.047492,0.04787 z"
         id="path10-5-2-5-5-8-8-2"
         transform="scale(0.26458333)" />
      <path
         style="fill:#00ffff;fill-opacity:1;stroke:#000000;stroke-width:0.160946;stroke-opacity:1"
         d="m 57.055141,53.175694 c -1.21e-4,-1.495516 -0.04811,-5.598041 -0.106635,-9.116723 l -0.106414,-6.397604 h 9.36103 9.36103 v 9.012976 9.012977 l -8.16801,0.0011 c -4.492405,6.29e-4 -8.656883,0.04731 -9.254395,0.103746 l -1.086386,0.102603 z"
         id="path11-00-6-0-4-1-9-4"
         transform="scale(0.26458333)" />
      <path
         style="fill:#00ffff;fill-opacity:1;stroke:#000000;stroke-width:0.160946;stroke-opacity:1"
         d="m 57.162215,69.086075 c -0.05853,-3.518682 -0.106513,-7.671709 -0.106634,-9.228948 l -2.2e-4,-2.831344 3.017738,-0.105466 c 1.659755,-0.05801 5.824233,-0.10567 9.254395,-0.10592 l 6.236658,-4.55e-4 v 9.334869 9.334868 H 66.416391 57.26863 Z"
         id="path12-8-6-6-7-4-4-6"
         transform="scale(0.26458333)" />
      <path
         style="fill:#00ffff;fill-opacity:1;stroke:#000000;stroke-width:0.160946;stroke-opacity:1"
         d="m 37.74184,66.333857 v -9.149822 l 1.473239,-0.104574 c 0.810282,-0.05752 4.902334,-0.104573 9.09345,-0.104573 h 7.62021 l 3.3e-4,5.029563 c 1.8e-4,2.766259 0.04802,6.930737 0.106301,9.254395 l 0.105974,4.224833 H 46.941592 37.74184 Z"
         id="path13-37-5-5-9-8-7-7"
         transform="scale(0.26458333)" />
    </g>
    <g
       id="g13-11-3-3-9-7-9-5-2"
       transform="translate(190.3371,100.33454)">
      <g
         id="g4-6-7-4-5-0-8-3-0">
        <rect
           style="fill:none;fill-opacity:1;stroke:#000000;stroke-width:0.271379;stroke-opacity:1"
           id="rect4-1-7-8-7-4-4-8-7"
           width="10.311954"
           height="10.311954"
           x="9.8276854"
           y="9.8276854" />
        <path
           style="fill:none;fill-opacity:1;stroke:#000000;stroke-width:0.261976;stroke-opacity:1"
           d="m 14.902968,9.6664737 0.08199,10.5812433"
           id="path4-18-5-6-6-1-5-5-7" />
        <path
           style="fill:none;fill-opacity:1;stroke:#000000;stroke-width:0.261976;stroke-opacity:1"
           d="M 20.245157,14.86928 9.6639136,14.95127"
           id="path4-7-11-1-1-8-0-8-1-9" />
      </g>
      <path
         style="fill:#00ffff;fill-opacity:1;stroke:#000000;stroke-width:0.160946;stroke-opacity:1"
         d="m 37.741776,46.795053 6.4e-5,-9.133686 h 8.986915 8.986915 l 0.111428,9.034907 c 0.06128,4.969199 0.08852,9.057819 0.06051,9.085822 -0.028,0.028 -4.122286,0.07245 -9.098407,0.09878 l -9.047492,0.04787 z"
         id="path10-5-2-5-5-8-8-2-7"
         transform="scale(0.26458333)" />
      <path
         style="fill:#00ffff;fill-opacity:1;stroke:#000000;stroke-width:0.160946;stroke-opacity:1"
         d="m 57.055141,53.175694 c -1.21e-4,-1.495516 -0.04811,-5.598041 -0.106635,-9.116723 l -0.106414,-6.397604 h 9.36103 9.36103 v 9.012976 9.012977 l -8.16801,0.0011 c -4.492405,6.29e-4 -8.656883,0.04731 -9.254395,0.103746 l -1.086386,0.102603 z"
         id="path11-00-6-0-4-1-9-4-5"
         transform="scale(0.26458333)" />
      <path
         style="fill:#00ffff;fill-opacity:1;stroke:#000000;stroke-width:0.160946;stroke-opacity:1"
         d="m 57.162215,69.086075 c -0.05853,-3.518682 -0.106513,-7.671709 -0.106634,-9.228948 l -2.2e-4,-2.831344 3.017738,-0.105466 c 1.659755,-0.05801 5.824233,-0.10567 9.254395,-0.10592 l 6.236658,-4.55e-4 v 9.334869 9.334868 H 66.416391 57.26863 Z"
         id="path12-8-6-6-7-4-4-6-3"
         transform="scale(0.26458333)" />
      <path
         style="fill:#00ffff;fill-opacity:1;stroke:#000000;stroke-width:0.160946;stroke-opacity:1"
         d="m 37.74184,66.333857 v -9.149822 l 1.473239,-0.104574 c 0.810282,-0.05752 4.902334,-0.104573 9.09345,-0.104573 h 7.62021 l 3.3e-4,5.029563 c 1.8e-4,2.766259 0.04802,6.930737 0.106301,9.254395 l 0.105974,4.224833 H 46.941592 37.74184 Z"
         id="path13-37-5-5-9-8-7-7-9"
         transform="scale(0.26458333)" />
    </g>
    <g
       id="g13-11-3-3-9-7-9-5-2-5"
       transform="translate(165.3371,120.33454)">
      <g
         id="g4-6-7-4-5-0-8-3-0-9">
        <rect
           style="fill:none;fill-opacity:1;stroke:#000000;stroke-width:0.271379;stroke-opacity:1"
           id="rect4-1-7-8-7-4-4-8-7-8"
           width="10.311954"
           height="10.311954"
           x="9.8276854"
           y="9.8276854" />
        <path
           style="fill:none;fill-opacity:1;stroke:#000000;stroke-width:0.261976;stroke-opacity:1"
           d="m 14.902968,9.6664737 0.08199,10.5812433"
           id="path4-18-5-6-6-1-5-5-7-3" />
        <path
           style="fill:none;fill-opacity:1;stroke:#000000;stroke-width:0.261976;stroke-opacity:1"
           d="M 20.245157,14.86928 9.6639136,14.95127"
           id="path4-7-11-1-1-8-0-8-1-9-0" />
      </g>
      <path
         style="fill:#00ffff;fill-opacity:1;stroke:#000000;stroke-width:0.160946;stroke-opacity:1"
         d="m 37.741776,46.795053 6.4e-5,-9.133686 h 8.986915 8.986915 l 0.111428,9.034907 c 0.06128,4.969199 0.08852,9.057819 0.06051,9.085822 -0.028,0.028 -4.122286,0.07245 -9.098407,0.09878 l -9.047492,0.04787 z"
         id="path10-5-2-5-5-8-8-2-7-9"
         transform="scale(0.26458333)" />
      <path
         style="fill:#00ffff;fill-opacity:1;stroke:#000000;stroke-width:0.160946;stroke-opacity:1"
         d="m 57.055141,53.175694 c -1.21e-4,-1.495516 -0.04811,-5.598041 -0.106635,-9.116723 l -0.106414,-6.397604 h 9.36103 9.36103 v 9.012976 9.012977 l -8.16801,0.0011 c -4.492405,6.29e-4 -8.656883,0.04731 -9.254395,0.103746 l -1.086386,0.102603 z"
         id="path11-00-6-0-4-1-9-4-5-0"
         transform="scale(0.26458333)" />
      <path
         style="fill:#00ffff;fill-opacity:1;stroke:#000000;stroke-width:0.160946;stroke-opacity:1"
         d="m 57.162215,69.086075 c -0.05853,-3.518682 -0.106513,-7.671709 -0.106634,-9.228948 l -2.2e-4,-2.831344 3.017738,-0.105466 c 1.659755,-0.05801 5.824233,-0.10567 9.254395,-0.10592 l 6.236658,-4.55e-4 v 9.334869 9.334868 H 66.416391 57.26863 Z"
         id="path12-8-6-6-7-4-4-6-3-7"
         transform="scale(0.26458333)" />
      <path
         style="fill:#00ffff;fill-opacity:1;stroke:#000000;stroke-width:0.160946;stroke-opacity:1"
         d="m 37.74184,66.333857 v -9.149822 l 1.473239,-0.104574 c 0.810282,-0.05752 4.902334,-0.104573 9.09345,-0.104573 h 7.62021 l 3.3e-4,5.029563 c 1.8e-4,2.766259 0.04802,6.930737 0.106301,9.254395 l 0.105974,4.224833 H 46.941592 37.74184 Z"
         id="path13-37-5-5-9-8-7-7-9-6"
         transform="scale(0.26458333)" />
    </g>
    <g
       id="g13-11-3-3-9-7-9-5-2-5-1"
       transform="translate(215.3371,75.334541)">
      <g
         id="g4-6-7-4-5-0-8-3-0-9-9">
        <rect
           style="fill:none;fill-opacity:1;stroke:#000000;stroke-width:0.271379;stroke-opacity:1"
           id="rect4-1-7-8-7-4-4-8-7-8-6"
           width="10.311954"
           height="10.311954"
           x="9.8276854"
           y="9.8276854" />
        <path
           style="fill:none;fill-opacity:1;stroke:#000000;stroke-width:0.261976;stroke-opacity:1"
           d="m 14.902968,9.6664737 0.08199,10.5812433"
           id="path4-18-5-6-6-1-5-5-7-3-7" />
        <path
           style="fill:none;fill-opacity:1;stroke:#000000;stroke-width:0.261976;stroke-opacity:1"
           d="M 20.245157,14.86928 9.6639136,14.95127"
           id="path4-7-11-1-1-8-0-8-1-9-0-8" />
      </g>
      <path
         style="fill:#00ffff;fill-opacity:1;stroke:#000000;stroke-width:0.160946;stroke-opacity:1"
         d="m 37.741776,46.795053 6.4e-5,-9.133686 h 8.986915 8.986915 l 0.111428,9.034907 c 0.06128,4.969199 0.08852,9.057819 0.06051,9.085822 -0.028,0.028 -4.122286,0.07245 -9.098407,0.09878 l -9.047492,0.04787 z"
         id="path10-5-2-5-5-8-8-2-7-9-9"
         transform="scale(0.26458333)" />
      <path
         style="fill:#00ffff;fill-opacity:1;stroke:#000000;stroke-width:0.160946;stroke-opacity:1"
         d="m 57.055141,53.175694 c -1.21e-4,-1.495516 -0.04811,-5.598041 -0.106635,-9.116723 l -0.106414,-6.397604 h 9.36103 9.36103 v 9.012976 9.012977 l -8.16801,0.0011 c -4.492405,6.29e-4 -8.656883,0.04731 -9.254395,0.103746 l -1.086386,0.102603 z"
         id="path11-00-6-0-4-1-9-4-5-0-7"
         transform="scale(0.26458333)" />
      <path
         style="fill:#00ffff;fill-opacity:1;stroke:#000000;stroke-width:0.160946;stroke-opacity:1"
         d="m 57.162215,69.086075 c -0.05853,-3.518682 -0.106513,-7.671709 -0.106634,-9.228948 l -2.2e-4,-2.831344 3.017738,-0.105466 c 1.659755,-0.05801 5.824233,-0.10567 9.254395,-0.10592 l 6.236658,-4.55e-4 v 9.334869 9.334868 H 66.416391 57.26863 Z"
         id="path12-8-6-6-7-4-4-6-3-7-5"
         transform="scale(0.26458333)" />
      <path
         style="fill:#00ffff;fill-opacity:1;stroke:#000000;stroke-width:0.160946;stroke-opacity:1"
         d="m 37.74184,66.333857 v -9.149822 l 1.473239,-0.104574 c 0.810282,-0.05752 4.902334,-0.104573 9.09345,-0.104573 h 7.62021 l 3.3e-4,5.029563 c 1.8e-4,2.766259 0.04802,6.930737 0.106301,9.254395 l 0.105974,4.224833 H 46.941592 37.74184 Z"
         id="path13-37-5-5-9-8-7-7-9-6-5"
         transform="scale(0.26458333)" />
    </g>
    <g
       id="g13-11-3-3-9-7-9-5-2-5-1-4"
       transform="translate(265.3371,75.334541)">
      <g
         id="g4-6-7-4-5-0-8-3-0-9-9-7">
        <rect
           style="fill:none;fill-opacity:1;stroke:#000000;stroke-width:0.271379;stroke-opacity:1"
           id="rect4-1-7-8-7-4-4-8-7-8-6-9"
           width="10.311954"
           height="10.311954"
           x="9.8276854"
           y="9.8276854" />
        <path
           style="fill:none;fill-opacity:1;stroke:#000000;stroke-width:0.261976;stroke-opacity:1"
           d="m 14.902968,9.6664737 0.08199,10.5812433"
           id="path4-18-5-6-6-1-5-5-7-3-7-5" />
        <path
           style="fill:none;fill-opacity:1;stroke:#000000;stroke-width:0.261976;stroke-opacity:1"
           d="M 20.245157,14.86928 9.6639136,14.95127"
           id="path4-7-11-1-1-8-0-8-1-9-0-8-5" />
      </g>
      <path
         style="fill:#00ffff;fill-opacity:1;stroke:#000000;stroke-width:0.160946;stroke-opacity:1"
         d="m 37.741776,46.795053 6.4e-5,-9.133686 h 8.986915 8.986915 l 0.111428,9.034907 c 0.06128,4.969199 0.08852,9.057819 0.06051,9.085822 -0.028,0.028 -4.122286,0.07245 -9.098407,0.09878 l -9.047492,0.04787 z"
         id="path10-5-2-5-5-8-8-2-7-9-9-6"
         transform="scale(0.26458333)" />
      <path
         style="fill:#00ffff;fill-opacity:1;stroke:#000000;stroke-width:0.160946;stroke-opacity:1"
         d="m 57.055141,53.175694 c -1.21e-4,-1.495516 -0.04811,-5.598041 -0.106635,-9.116723 l -0.106414,-6.397604 h 9.36103 9.36103 v 9.012976 9.012977 l -8.16801,0.0011 c -4.492405,6.29e-4 -8.656883,0.04731 -9.254395,0.103746 l -1.086386,0.102603 z"
         id="path11-00-6-0-4-1-9-4-5-0-7-1"
         transform="scale(0.26458333)" />
      <path
         style="fill:#00ffff;fill-opacity:1;stroke:#000000;stroke-width:0.160946;stroke-opacity:1"
         d="m 57.162215,69.086075 c -0.05853,-3.518682 -0.106513,-7.671709 -0.106634,-9.228948 l -2.2e-4,-2.831344 3.017738,-0.105466 c 1.659755,-0.05801 5.824233,-0.10567 9.254395,-0.10592 l 6.236658,-4.55e-4 v 9.334869 9.334868 H 66.416391 57.26863 Z"
         id="path12-8-6-6-7-4-4-6-3-7-5-5"
         transform="scale(0.26458333)" />
      <path
         style="fill:#00ffff;fill-opacity:1;stroke:#000000;stroke-width:0.160946;stroke-opacity:1"
         d="m 37.74184,66.333857 v -9.149822 l 1.473239,-0.104574 c 0.810282,-0.05752 4.902334,-0.104573 9.09345,-0.104573 h 7.62021 l 3.3e-4,5.029563 c 1.8e-4,2.766259 0.04802,6.930737 0.106301,9.254395 l 0.105974,4.224833 H 46.941592 37.74184 Z"
         id="path13-37-5-5-9-8-7-7-9-6-5-9"
         transform="scale(0.26458333)" />
    </g>
    <g
       id="g13-11-3-3-9-7-9-5-2-5-1-4-9"
       transform="matrix(0.99995945,0,0,1.0000001,240.33749,95.33454)">
      <g
         id="g4-6-7-4-5-0-8-3-0-9-9-7-4">
        <rect
           style="fill:none;fill-opacity:1;stroke:#000000;stroke-width:0.271379;stroke-opacity:1"
           id="rect4-1-7-8-7-4-4-8-7-8-6-9-3"
           width="10.311954"
           height="10.311954"
           x="9.8276854"
           y="9.8276854" />
        <path
           style="fill:none;fill-opacity:1;stroke:#000000;stroke-width:0.261976;stroke-opacity:1"
           d="m 14.902968,9.6664737 0.08199,10.5812433"
           id="path4-18-5-6-6-1-5-5-7-3-7-5-9" />
        <path
           style="fill:none;fill-opacity:1;stroke:#000000;stroke-width:0.261976;stroke-opacity:1"
           d="M 20.245157,14.86928 9.6639136,14.95127"
           id="path4-7-11-1-1-8-0-8-1-9-0-8-5-5" />
      </g>
      <path
         style="fill:#00ffff;fill-opacity:1;stroke:#000000;stroke-width:0.160946;stroke-opacity:1"
         d="m 37.741776,46.795053 6.4e-5,-9.133686 h 8.986915 8.986915 l 0.111428,9.034907 c 0.06128,4.969199 0.08852,9.057819 0.06051,9.085822 -0.028,0.028 -4.122286,0.07245 -9.098407,0.09878 l -9.047492,0.04787 z"
         id="path10-5-2-5-5-8-8-2-7-9-9-6-1"
         transform="scale(0.26458333)" />
      <path
         style="fill:#00ffff;fill-opacity:1;stroke:#000000;stroke-width:0.160946;stroke-opacity:1"
         d="m 57.055141,53.175694 c -1.21e-4,-1.495516 -0.04811,-5.598041 -0.106635,-9.116723 l -0.106414,-6.397604 h 9.36103 9.36103 v 9.012976 9.012977 l -8.16801,0.0011 c -4.492405,6.29e-4 -8.656883,0.04731 -9.254395,0.103746 l -1.086386,0.102603 z"
         id="path11-00-6-0-4-1-9-4-5-0-7-1-7"
         transform="scale(0.26458333)" />
      <path
         style="fill:#00ffff;fill-opacity:1;stroke:#000000;stroke-width:0.160946;stroke-opacity:1"
         d="m 57.162215,69.086075 c -0.05853,-3.518682 -0.106513,-7.671709 -0.106634,-9.228948 l -2.2e-4,-2.831344 3.017738,-0.105466 c 1.659755,-0.05801 5.824233,-0.10567 9.254395,-0.10592 l 6.236658,-4.55e-4 v 9.334869 9.334868 H 66.416391 57.26863 Z"
         id="path12-8-6-6-7-4-4-6-3-7-5-5-4"
         transform="scale(0.26458333)" />
      <path
         style="fill:#00ffff;fill-opacity:1;stroke:#000000;stroke-width:0.160946;stroke-opacity:1"
         d="m 37.74184,66.333857 v -9.149822 l 1.473239,-0.104574 c 0.810282,-0.05752 4.902334,-0.104573 9.09345,-0.104573 h 7.62021 l 3.3e-4,5.029563 c 1.8e-4,2.766259 0.04802,6.930737 0.106301,9.254395 l 0.105974,4.224833 H 46.941592 37.74184 Z"
         id="path13-37-5-5-9-8-7-7-9-6-5-9-5"
         transform="scale(0.26458333)" />
    </g>
    <g
       id="g13-11-3-3-9-7-9-5-2-5-1-4-9-3"
       transform="translate(215.3371,115.33454)">
      <g
         id="g4-6-7-4-5-0-8-3-0-9-9-7-4-2">
        <rect
           style="fill:none;fill-opacity:1;stroke:#000000;stroke-width:0.271379;stroke-opacity:1"
           id="rect4-1-7-8-7-4-4-8-7-8-6-9-3-2"
           width="10.311954"
           height="10.311954"
           x="9.8276854"
           y="9.8276854" />
        <path
           style="fill:none;fill-opacity:1;stroke:#000000;stroke-width:0.261976;stroke-opacity:1"
           d="m 14.902968,9.6664737 0.08199,10.5812433"
           id="path4-18-5-6-6-1-5-5-7-3-7-5-9-1" />
        <path
           style="fill:none;fill-opacity:1;stroke:#000000;stroke-width:0.261976;stroke-opacity:1"
           d="M 20.245157,14.86928 9.6639136,14.95127"
           id="path4-7-11-1-1-8-0-8-1-9-0-8-5-5-4" />
      </g>
      <path
         style="fill:#00ffff;fill-opacity:1;stroke:#000000;stroke-width:0.160946;stroke-opacity:1"
         d="m 37.741776,46.795053 6.4e-5,-9.133686 h 8.986915 8.986915 l 0.111428,9.034907 c 0.06128,4.969199 0.08852,9.057819 0.06051,9.085822 -0.028,0.028 -4.122286,0.07245 -9.098407,0.09878 l -9.047492,0.04787 z"
         id="path10-5-2-5-5-8-8-2-7-9-9-6-1-7"
         transform="scale(0.26458333)" />
      <path
         style="fill:#00ffff;fill-opacity:1;stroke:#000000;stroke-width:0.160946;stroke-opacity:1"
         d="m 57.055141,53.175694 c -1.21e-4,-1.495516 -0.04811,-5.598041 -0.106635,-9.116723 l -0.106414,-6.397604 h 9.36103 9.36103 v 9.012976 9.012977 l -8.16801,0.0011 c -4.492405,6.29e-4 -8.656883,0.04731 -9.254395,0.103746 l -1.086386,0.102603 z"
         id="path11-00-6-0-4-1-9-4-5-0-7-1-7-7"
         transform="scale(0.26458333)" />
      <path
         style="fill:#00ffff;fill-opacity:1;stroke:#000000;stroke-width:0.160946;stroke-opacity:1"
         d="m 57.162215,69.086075 c -0.05853,-3.518682 -0.106513,-7.671709 -0.106634,-9.228948 l -2.2e-4,-2.831344 3.017738,-0.105466 c 1.659755,-0.05801 5.824233,-0.10567 9.254395,-0.10592 l 6.236658,-4.55e-4 v 9.334869 9.334868 H 66.416391 57.26863 Z"
         id="path12-8-6-6-7-4-4-6-3-7-5-5-4-0"
         transform="scale(0.26458333)" />
      <path
         style="fill:#00ffff;fill-opacity:1;stroke:#000000;stroke-width:0.160946;stroke-opacity:1"
         d="m 37.74184,66.333857 v -9.149822 l 1.473239,-0.104574 c 0.810282,-0.05752 4.902334,-0.104573 9.09345,-0.104573 h 7.62021 l 3.3e-4,5.029563 c 1.8e-4,2.766259 0.04802,6.930737 0.106301,9.254395 l 0.105974,4.224833 H 46.941592 37.74184 Z"
         id="path13-37-5-5-9-8-7-7-9-6-5-9-5-9"
         transform="scale(0.26458333)" />
    </g>
    <g
       id="g13-11-3-3-9-7-9-5-2-5-1-4-9-3-7"
       transform="translate(265.3371,115.33454)">
      <g
         id="g4-6-7-4-5-0-8-3-0-9-9-7-4-2-6">
        <rect
           style="fill:none;fill-opacity:1;stroke:#000000;stroke-width:0.271379;stroke-opacity:1"
           id="rect4-1-7-8-7-4-4-8-7-8-6-9-3-2-8"
           width="10.311954"
           height="10.311954"
           x="9.8276854"
           y="9.8276854" />
        <path
           style="fill:none;fill-opacity:1;stroke:#000000;stroke-width:0.261976;stroke-opacity:1"
           d="m 14.902968,9.6664737 0.08199,10.5812433"
           id="path4-18-5-6-6-1-5-5-7-3-7-5-9-1-2" />
        <path
           style="fill:none;fill-opacity:1;stroke:#000000;stroke-width:0.261976;stroke-opacity:1"
           d="M 20.245157,14.86928 9.6639136,14.95127"
           id="path4-7-11-1-1-8-0-8-1-9-0-8-5-5-4-9" />
      </g>
      <path
         style="fill:#00ffff;fill-opacity:1;stroke:#000000;stroke-width:0.160946;stroke-opacity:1"
         d="m 37.741776,46.795053 6.4e-5,-9.133686 h 8.986915 8.986915 l 0.111428,9.034907 c 0.06128,4.969199 0.08852,9.057819 0.06051,9.085822 -0.028,0.028 -4.122286,0.07245 -9.098407,0.09878 l -9.047492,0.04787 z"
         id="path10-5-2-5-5-8-8-2-7-9-9-6-1-7-9"
         transform="scale(0.26458333)" />
      <path
         style="fill:#00ffff;fill-opacity:1;stroke:#000000;stroke-width:0.160946;stroke-opacity:1"
         d="m 57.055141,53.175694 c -1.21e-4,-1.495516 -0.04811,-5.598041 -0.106635,-9.116723 l -0.106414,-6.397604 h 9.36103 9.36103 v 9.012976 9.012977 l -8.16801,0.0011 c -4.492405,6.29e-4 -8.656883,0.04731 -9.254395,0.103746 l -1.086386,0.102603 z"
         id="path11-00-6-0-4-1-9-4-5-0-7-1-7-7-8"
         transform="scale(0.26458333)" />
      <path
         style="fill:#00ffff;fill-opacity:1;stroke:#000000;stroke-width:0.160946;stroke-opacity:1"
         d="m 57.162215,69.086075 c -0.05853,-3.518682 -0.106513,-7.671709 -0.106634,-9.228948 l -2.2e-4,-2.831344 3.017738,-0.105466 c 1.659755,-0.05801 5.824233,-0.10567 9.254395,-0.10592 l 6.236658,-4.55e-4 v 9.334869 9.334868 H 66.416391 57.26863 Z"
         id="path12-8-6-6-7-4-4-6-3-7-5-5-4-0-3"
         transform="scale(0.26458333)" />
      <path
         style="fill:#00ffff;fill-opacity:1;stroke:#000000;stroke-width:0.160946;stroke-opacity:1"
         d="m 37.74184,66.333857 v -9.149822 l 1.473239,-0.104574 c 0.810282,-0.05752 4.902334,-0.104573 9.09345,-0.104573 h 7.62021 l 3.3e-4,5.029563 c 1.8e-4,2.766259 0.04802,6.930737 0.106301,9.254395 l 0.105974,4.224833 H 46.941592 37.74184 Z"
         id="path13-37-5-5-9-8-7-7-9-6-5-9-5-9-7"
         transform="scale(0.26458333)" />
    </g>
    <g
       id="g13-11-3-3-9-7-9-5-2-5-1-4-9-3-7-7"
       transform="translate(295.3371,75.334541)">
      <g
         id="g4-6-7-4-5-0-8-3-0-9-9-7-4-2-6-6">
        <rect
           style="fill:none;fill-opacity:1;stroke:#000000;stroke-width:0.271379;stroke-opacity:1"
           id="rect4-1-7-8-7-4-4-8-7-8-6-9-3-2-8-5"
           width="10.311954"
           height="10.311954"
           x="9.8276854"
           y="9.8276854" />
        <path
           style="fill:none;fill-opacity:1;stroke:#000000;stroke-width:0.261976;stroke-opacity:1"
           d="m 14.902968,9.6664737 0.08199,10.5812433"
           id="path4-18-5-6-6-1-5-5-7-3-7-5-9-1-2-0" />
        <path
           style="fill:none;fill-opacity:1;stroke:#000000;stroke-width:0.261976;stroke-opacity:1"
           d="M 20.245157,14.86928 9.6639136,14.95127"
           id="path4-7-11-1-1-8-0-8-1-9-0-8-5-5-4-9-4" />
      </g>
      <path
         style="fill:#00ffff;fill-opacity:1;stroke:#000000;stroke-width:0.160946;stroke-opacity:1"
         d="m 37.741776,46.795053 6.4e-5,-9.133686 h 8.986915 8.986915 l 0.111428,9.034907 c 0.06128,4.969199 0.08852,9.057819 0.06051,9.085822 -0.028,0.028 -4.122286,0.07245 -9.098407,0.09878 l -9.047492,0.04787 z"
         id="path10-5-2-5-5-8-8-2-7-9-9-6-1-7-9-5"
         transform="scale(0.26458333)" />
      <path
         style="fill:#00ffff;fill-opacity:1;stroke:#000000;stroke-width:0.160946;stroke-opacity:1"
         d="m 57.055141,53.175694 c -1.21e-4,-1.495516 -0.04811,-5.598041 -0.106635,-9.116723 l -0.106414,-6.397604 h 9.36103 9.36103 v 9.012976 9.012977 l -8.16801,0.0011 c -4.492405,6.29e-4 -8.656883,0.04731 -9.254395,0.103746 l -1.086386,0.102603 z"
         id="path11-00-6-0-4-1-9-4-5-0-7-1-7-7-8-1"
         transform="scale(0.26458333)" />
      <path
         style="fill:#00ffff;fill-opacity:1;stroke:#000000;stroke-width:0.160946;stroke-opacity:1"
         d="m 57.162215,69.086075 c -0.05853,-3.518682 -0.106513,-7.671709 -0.106634,-9.228948 l -2.2e-4,-2.831344 3.017738,-0.105466 c 1.659755,-0.05801 5.824233,-0.10567 9.254395,-0.10592 l 6.236658,-4.55e-4 v 9.334869 9.334868 H 66.416391 57.26863 Z"
         id="path12-8-6-6-7-4-4-6-3-7-5-5-4-0-3-2"
         transform="scale(0.26458333)" />
      <path
         style="fill:#00ffff;fill-opacity:1;stroke:#000000;stroke-width:0.160946;stroke-opacity:1"
         d="m 37.74184,66.333857 v -9.149822 l 1.473239,-0.104574 c 0.810282,-0.05752 4.902334,-0.104573 9.09345,-0.104573 h 7.62021 l 3.3e-4,5.029563 c 1.8e-4,2.766259 0.04802,6.930737 0.106301,9.254395 l 0.105974,4.224833 H 46.941592 37.74184 Z"
         id="path13-37-5-5-9-8-7-7-9-6-5-9-5-9-7-3"
         transform="scale(0.26458333)" />
    </g>
    <g
       id="g13-11-3-3-9-7-9-5-2-5-1-4-9-3-7-7-8"
       transform="translate(295.3371,105.33454)">
      <g
         id="g4-6-7-4-5-0-8-3-0-9-9-7-4-2-6-6-2">
        <rect
           style="fill:none;fill-opacity:1;stroke:#000000;stroke-width:0.271379;stroke-opacity:1"
           id="rect4-1-7-8-7-4-4-8-7-8-6-9-3-2-8-5-6"
           width="10.311954"
           height="10.311954"
           x="9.8276854"
           y="9.8276854" />
        <path
           style="fill:none;fill-opacity:1;stroke:#000000;stroke-width:0.261976;stroke-opacity:1"
           d="m 14.902968,9.6664737 0.08199,10.5812433"
           id="path4-18-5-6-6-1-5-5-7-3-7-5-9-1-2-0-0" />
        <path
           style="fill:none;fill-opacity:1;stroke:#000000;stroke-width:0.261976;stroke-opacity:1"
           d="M 20.245157,14.86928 9.6639136,14.95127"
           id="path4-7-11-1-1-8-0-8-1-9-0-8-5-5-4-9-4-3" />
      </g>
      <path
         style="fill:#00ffff;fill-opacity:1;stroke:#000000;stroke-width:0.160946;stroke-opacity:1"
         d="m 37.741776,46.795053 6.4e-5,-9.133686 h 8.986915 8.986915 l 0.111428,9.034907 c 0.06128,4.969199 0.08852,9.057819 0.06051,9.085822 -0.028,0.028 -4.122286,0.07245 -9.098407,0.09878 l -9.047492,0.04787 z"
         id="path10-5-2-5-5-8-8-2-7-9-9-6-1-7-9-5-9"
         transform="scale(0.26458333)" />
      <path
         style="fill:#00ffff;fill-opacity:1;stroke:#000000;stroke-width:0.160946;stroke-opacity:1"
         d="m 57.055141,53.175694 c -1.21e-4,-1.495516 -0.04811,-5.598041 -0.106635,-9.116723 l -0.106414,-6.397604 h 9.36103 9.36103 v 9.012976 9.012977 l -8.16801,0.0011 c -4.492405,6.29e-4 -8.656883,0.04731 -9.254395,0.103746 l -1.086386,0.102603 z"
         id="path11-00-6-0-4-1-9-4-5-0-7-1-7-7-8-1-4"
         transform="scale(0.26458333)" />
      <path
         style="fill:#00ffff;fill-opacity:1;stroke:#000000;stroke-width:0.160946;stroke-opacity:1"
         d="m 57.162215,69.086075 c -0.05853,-3.518682 -0.106513,-7.671709 -0.106634,-9.228948 l -2.2e-4,-2.831344 3.017738,-0.105466 c 1.659755,-0.05801 5.824233,-0.10567 9.254395,-0.10592 l 6.236658,-4.55e-4 v 9.334869 9.334868 H 66.416391 57.26863 Z"
         id="path12-8-6-6-7-4-4-6-3-7-5-5-4-0-3-2-9"
         transform="scale(0.26458333)" />
      <path
         style="fill:#00ffff;fill-opacity:1;stroke:#000000;stroke-width:0.160946;stroke-opacity:1"
         d="m 37.74184,66.333857 v -9.149822 l 1.473239,-0.104574 c 0.810282,-0.05752 4.902334,-0.104573 9.09345,-0.104573 h 7.62021 l 3.3e-4,5.029563 c 1.8e-4,2.766259 0.04802,6.930737 0.106301,9.254395 l 0.105974,4.224833 H 46.941592 37.74184 Z"
         id="path13-37-5-5-9-8-7-7-9-6-5-9-5-9-7-3-6"
         transform="scale(0.26458333)" />
    </g>
    <g
       id="g13-11-3-3-9-7-9-5-2-5-1-4-9-3-7-7-8-6"
       transform="translate(330.3371,75.334541)">
      <g
         id="g4-6-7-4-5-0-8-3-0-9-9-7-4-2-6-6-2-9">
        <rect
           style="fill:none;fill-opacity:1;stroke:#000000;stroke-width:0.271379;stroke-opacity:1"
           id="rect4-1-7-8-7-4-4-8-7-8-6-9-3-2-8-5-6-0"
           width="10.311954"
           height="10.311954"
           x="9.8276854"
           y="9.8276854" />
        <path
           style="fill:none;fill-opacity:1;stroke:#000000;stroke-width:0.261976;stroke-opacity:1"
           d="m 14.902968,9.6664737 0.08199,10.5812433"
           id="path4-18-5-6-6-1-5-5-7-3-7-5-9-1-2-0-0-0" />
        <path
           style="fill:none;fill-opacity:1;stroke:#000000;stroke-width:0.261976;stroke-opacity:1"
           d="M 20.245157,14.86928 9.6639136,14.95127"
           id="path4-7-11-1-1-8-0-8-1-9-0-8-5-5-4-9-4-3-3" />
      </g>
      <path
         style="fill:#00ffff;fill-opacity:1;stroke:#000000;stroke-width:0.160946;stroke-opacity:1"
         d="m 37.741776,46.795053 6.4e-5,-9.133686 h 8.986915 8.986915 l 0.111428,9.034907 c 0.06128,4.969199 0.08852,9.057819 0.06051,9.085822 -0.028,0.028 -4.122286,0.07245 -9.098407,0.09878 l -9.047492,0.04787 z"
         id="path10-5-2-5-5-8-8-2-7-9-9-6-1-7-9-5-9-9"
         transform="scale(0.26458333)" />
      <path
         style="fill:#00ffff;fill-opacity:1;stroke:#000000;stroke-width:0.160946;stroke-opacity:1"
         d="m 57.055141,53.175694 c -1.21e-4,-1.495516 -0.04811,-5.598041 -0.106635,-9.116723 l -0.106414,-6.397604 h 9.36103 9.36103 v 9.012976 9.012977 l -8.16801,0.0011 c -4.492405,6.29e-4 -8.656883,0.04731 -9.254395,0.103746 l -1.086386,0.102603 z"
         id="path11-00-6-0-4-1-9-4-5-0-7-1-7-7-8-1-4-5"
         transform="scale(0.26458333)" />
      <path
         style="fill:#00ffff;fill-opacity:1;stroke:#000000;stroke-width:0.160946;stroke-opacity:1"
         d="m 57.162215,69.086075 c -0.05853,-3.518682 -0.106513,-7.671709 -0.106634,-9.228948 l -2.2e-4,-2.831344 3.017738,-0.105466 c 1.659755,-0.05801 5.824233,-0.10567 9.254395,-0.10592 l 6.236658,-4.55e-4 v 9.334869 9.334868 H 66.416391 57.26863 Z"
         id="path12-8-6-6-7-4-4-6-3-7-5-5-4-0-3-2-9-3"
         transform="scale(0.26458333)" />
      <path
         style="fill:#00ffff;fill-opacity:1;stroke:#000000;stroke-width:0.160946;stroke-opacity:1"
         d="m 37.74184,66.333857 v -9.149822 l 1.473239,-0.104574 c 0.810282,-0.05752 4.902334,-0.104573 9.09345,-0.104573 h 7.62021 l 3.3e-4,5.029563 c 1.8e-4,2.766259 0.04802,6.930737 0.106301,9.254395 l 0.105974,4.224833 H 46.941592 37.74184 Z"
         id="path13-37-5-5-9-8-7-7-9-6-5-9-5-9-7-3-6-1"
         transform="scale(0.26458333)" />
    </g>
    <g
       id="g13-11-3-3-9-7-9-5-2-5-1-4-9-3-7-7-8-6-1"
       transform="translate(355.3371,90.334541)">
      <g
         id="g4-6-7-4-5-0-8-3-0-9-9-7-4-2-6-6-2-9-9">
        <rect
           style="fill:none;fill-opacity:1;stroke:#000000;stroke-width:0.271379;stroke-opacity:1"
           id="rect4-1-7-8-7-4-4-8-7-8-6-9-3-2-8-5-6-0-0"
           width="10.311954"
           height="10.311954"
           x="9.8276854"
           y="9.8276854" />
        <path
           style="fill:none;fill-opacity:1;stroke:#000000;stroke-width:0.261976;stroke-opacity:1"
           d="m 14.902968,9.6664737 0.08199,10.5812433"
           id="path4-18-5-6-6-1-5-5-7-3-7-5-9-1-2-0-0-0-6" />
        <path
           style="fill:none;fill-opacity:1;stroke:#000000;stroke-width:0.261976;stroke-opacity:1"
           d="M 20.245157,14.86928 9.6639136,14.95127"
           id="path4-7-11-1-1-8-0-8-1-9-0-8-5-5-4-9-4-3-3-1" />
      </g>
      <path
         style="fill:#00ffff;fill-opacity:1;stroke:#000000;stroke-width:0.160946;stroke-opacity:1"
         d="m 37.741776,46.795053 6.4e-5,-9.133686 h 8.986915 8.986915 l 0.111428,9.034907 c 0.06128,4.969199 0.08852,9.057819 0.06051,9.085822 -0.028,0.028 -4.122286,0.07245 -9.098407,0.09878 l -9.047492,0.04787 z"
         id="path10-5-2-5-5-8-8-2-7-9-9-6-1-7-9-5-9-9-7"
         transform="scale(0.26458333)" />
      <path
         style="fill:#00ffff;fill-opacity:1;stroke:#000000;stroke-width:0.160946;stroke-opacity:1"
         d="m 57.055141,53.175694 c -1.21e-4,-1.495516 -0.04811,-5.598041 -0.106635,-9.116723 l -0.106414,-6.397604 h 9.36103 9.36103 v 9.012976 9.012977 l -8.16801,0.0011 c -4.492405,6.29e-4 -8.656883,0.04731 -9.254395,0.103746 l -1.086386,0.102603 z"
         id="path11-00-6-0-4-1-9-4-5-0-7-1-7-7-8-1-4-5-3"
         transform="scale(0.26458333)" />
      <path
         style="fill:#00ffff;fill-opacity:1;stroke:#000000;stroke-width:0.160946;stroke-opacity:1"
         d="m 57.162215,69.086075 c -0.05853,-3.518682 -0.106513,-7.671709 -0.106634,-9.228948 l -2.2e-4,-2.831344 3.017738,-0.105466 c 1.659755,-0.05801 5.824233,-0.10567 9.254395,-0.10592 l 6.236658,-4.55e-4 v 9.334869 9.334868 H 66.416391 57.26863 Z"
         id="path12-8-6-6-7-4-4-6-3-7-5-5-4-0-3-2-9-3-8"
         transform="scale(0.26458333)" />
      <path
         style="fill:#00ffff;fill-opacity:1;stroke:#000000;stroke-width:0.160946;stroke-opacity:1"
         d="m 37.74184,66.333857 v -9.149822 l 1.473239,-0.104574 c 0.810282,-0.05752 4.902334,-0.104573 9.09345,-0.104573 h 7.62021 l 3.3e-4,5.029563 c 1.8e-4,2.766259 0.04802,6.930737 0.106301,9.254395 l 0.105974,4.224833 H 46.941592 37.74184 Z"
         id="path13-37-5-5-9-8-7-7-9-6-5-9-5-9-7-3-6-1-7"
         transform="scale(0.26458333)" />
    </g>
    <g
       id="g13-11-3-3-9-7-9-5-2-5-1-4-9-3-7-7-8-6-1-1"
       transform="translate(330.3371,105.33454)">
      <g
         id="g4-6-7-4-5-0-8-3-0-9-9-7-4-2-6-6-2-9-9-4">
        <rect
           style="fill:none;fill-opacity:1;stroke:#000000;stroke-width:0.271379;stroke-opacity:1"
           id="rect4-1-7-8-7-4-4-8-7-8-6-9-3-2-8-5-6-0-0-1"
           width="10.311954"
           height="10.311954"
           x="9.8276854"
           y="9.8276854" />
        <path
           style="fill:none;fill-opacity:1;stroke:#000000;stroke-width:0.261976;stroke-opacity:1"
           d="m 14.902968,9.6664737 0.08199,10.5812433"
           id="path4-18-5-6-6-1-5-5-7-3-7-5-9-1-2-0-0-0-6-4" />
        <path
           style="fill:none;fill-opacity:1;stroke:#000000;stroke-width:0.261976;stroke-opacity:1"
           d="M 20.245157,14.86928 9.6639136,14.95127"
           id="path4-7-11-1-1-8-0-8-1-9-0-8-5-5-4-9-4-3-3-1-6" />
      </g>
      <path
         style="fill:#00ffff;fill-opacity:1;stroke:#000000;stroke-width:0.160946;stroke-opacity:1"
         d="m 37.741776,46.795053 6.4e-5,-9.133686 h 8.986915 8.986915 l 0.111428,9.034907 c 0.06128,4.969199 0.08852,9.057819 0.06051,9.085822 -0.028,0.028 -4.122286,0.07245 -9.098407,0.09878 l -9.047492,0.04787 z"
         id="path10-5-2-5-5-8-8-2-7-9-9-6-1-7-9-5-9-9-7-1"
         transform="scale(0.26458333)" />
      <path
         style="fill:#00ffff;fill-opacity:1;stroke:#000000;stroke-width:0.160946;stroke-opacity:1"
         d="m 57.055141,53.175694 c -1.21e-4,-1.495516 -0.04811,-5.598041 -0.106635,-9.116723 l -0.106414,-6.397604 h 9.36103 9.36103 v 9.012976 9.012977 l -8.16801,0.0011 c -4.492405,6.29e-4 -8.656883,0.04731 -9.254395,0.103746 l -1.086386,0.102603 z"
         id="path11-00-6-0-4-1-9-4-5-0-7-1-7-7-8-1-4-5-3-0"
         transform="scale(0.26458333)" />
      <path
         style="fill:#00ffff;fill-opacity:1;stroke:#000000;stroke-width:0.160946;stroke-opacity:1"
         d="m 57.162215,69.086075 c -0.05853,-3.518682 -0.106513,-7.671709 -0.106634,-9.228948 l -2.2e-4,-2.831344 3.017738,-0.105466 c 1.659755,-0.05801 5.824233,-0.10567 9.254395,-0.10592 l 6.236658,-4.55e-4 v 9.334869 9.334868 H 66.416391 57.26863 Z"
         id="path12-8-6-6-7-4-4-6-3-7-5-5-4-0-3-2-9-3-8-2"
         transform="scale(0.26458333)" />
      <path
         style="fill:#00ffff;fill-opacity:1;stroke:#000000;stroke-width:0.160946;stroke-opacity:1"
         d="m 37.74184,66.333857 v -9.149822 l 1.473239,-0.104574 c 0.810282,-0.05752 4.902334,-0.104573 9.09345,-0.104573 h 7.62021 l 3.3e-4,5.029563 c 1.8e-4,2.766259 0.04802,6.930737 0.106301,9.254395 l 0.105974,4.224833 H 46.941592 37.74184 Z"
         id="path13-37-5-5-9-8-7-7-9-6-5-9-5-9-7-3-6-1-7-4"
         transform="scale(0.26458333)" />
    </g>
    <g
       id="g13-11-3-3-9-7-9-5-2-5-1-4-9-3-7-7-8-6-1-1-7"
       transform="translate(355.3371,120.33454)">
      <g
         id="g4-6-7-4-5-0-8-3-0-9-9-7-4-2-6-6-2-9-9-4-9">
        <rect
           style="fill:none;fill-opacity:1;stroke:#000000;stroke-width:0.271379;stroke-opacity:1"
           id="rect4-1-7-8-7-4-4-8-7-8-6-9-3-2-8-5-6-0-0-1-4"
           width="10.311954"
           height="10.311954"
           x="9.8276854"
           y="9.8276854" />
        <path
           style="fill:none;fill-opacity:1;stroke:#000000;stroke-width:0.261976;stroke-opacity:1"
           d="m 14.902968,9.6664737 0.08199,10.5812433"
           id="path4-18-5-6-6-1-5-5-7-3-7-5-9-1-2-0-0-0-6-4-7" />
        <path
           style="fill:none;fill-opacity:1;stroke:#000000;stroke-width:0.261976;stroke-opacity:1"
           d="M 20.245157,14.86928 9.6639136,14.95127"
           id="path4-7-11-1-1-8-0-8-1-9-0-8-5-5-4-9-4-3-3-1-6-0" />
      </g>
      <path
         style="fill:#00ffff;fill-opacity:1;stroke:#000000;stroke-width:0.160946;stroke-opacity:1"
         d="m 37.741776,46.795053 6.4e-5,-9.133686 h 8.986915 8.986915 l 0.111428,9.034907 c 0.06128,4.969199 0.08852,9.057819 0.06051,9.085822 -0.028,0.028 -4.122286,0.07245 -9.098407,0.09878 l -9.047492,0.04787 z"
         id="path10-5-2-5-5-8-8-2-7-9-9-6-1-7-9-5-9-9-7-1-1"
         transform="scale(0.26458333)" />
      <path
         style="fill:#00ffff;fill-opacity:1;stroke:#000000;stroke-width:0.160946;stroke-opacity:1"
         d="m 57.055141,53.175694 c -1.21e-4,-1.495516 -0.04811,-5.598041 -0.106635,-9.116723 l -0.106414,-6.397604 h 9.36103 9.36103 v 9.012976 9.012977 l -8.16801,0.0011 c -4.492405,6.29e-4 -8.656883,0.04731 -9.254395,0.103746 l -1.086386,0.102603 z"
         id="path11-00-6-0-4-1-9-4-5-0-7-1-7-7-8-1-4-5-3-0-1"
         transform="scale(0.26458333)" />
      <path
         style="fill:#00ffff;fill-opacity:1;stroke:#000000;stroke-width:0.160946;stroke-opacity:1"
         d="m 57.162215,69.086075 c -0.05853,-3.518682 -0.106513,-7.671709 -0.106634,-9.228948 l -2.2e-4,-2.831344 3.017738,-0.105466 c 1.659755,-0.05801 5.824233,-0.10567 9.254395,-0.10592 l 6.236658,-4.55e-4 v 9.334869 9.334868 H 66.416391 57.26863 Z"
         id="path12-8-6-6-7-4-4-6-3-7-5-5-4-0-3-2-9-3-8-2-5"
         transform="scale(0.26458333)" />
      <path
         style="fill:#00ffff;fill-opacity:1;stroke:#000000;stroke-width:0.160946;stroke-opacity:1"
         d="m 37.74184,66.333857 v -9.149822 l 1.473239,-0.104574 c 0.810282,-0.05752 4.902334,-0.104573 9.09345,-0.104573 h 7.62021 l 3.3e-4,5.029563 c 1.8e-4,2.766259 0.04802,6.930737 0.106301,9.254395 l 0.105974,4.224833 H 46.941592 37.74184 Z"
         id="path13-37-5-5-9-8-7-7-9-6-5-9-5-9-7-3-6-1-7-4-2"
         transform="scale(0.26458333)" />
    </g>
    <g
       id="g13-11-3-3-9-7-9-5-2-5-1-4-9-3-7-7-8-6-1-1-7-7"
       transform="translate(395.3371,75.334541)">
      <g
         id="g4-6-7-4-5-0-8-3-0-9-9-7-4-2-6-6-2-9-9-4-9-7">
        <rect
           style="fill:none;fill-opacity:1;stroke:#000000;stroke-width:0.271379;stroke-opacity:1"
           id="rect4-1-7-8-7-4-4-8-7-8-6-9-3-2-8-5-6-0-0-1-4-2"
           width="10.311954"
           height="10.311954"
           x="9.8276854"
           y="9.8276854" />
        <path
           style="fill:none;fill-opacity:1;stroke:#000000;stroke-width:0.261976;stroke-opacity:1"
           d="m 14.902968,9.6664737 0.08199,10.5812433"
           id="path4-18-5-6-6-1-5-5-7-3-7-5-9-1-2-0-0-0-6-4-7-0" />
        <path
           style="fill:none;fill-opacity:1;stroke:#000000;stroke-width:0.261976;stroke-opacity:1"
           d="M 20.245157,14.86928 9.6639136,14.95127"
           id="path4-7-11-1-1-8-0-8-1-9-0-8-5-5-4-9-4-3-3-1-6-0-9" />
      </g>
      <path
         style="fill:#00ffff;fill-opacity:1;stroke:#000000;stroke-width:0.160946;stroke-opacity:1"
         d="m 37.741776,46.795053 6.4e-5,-9.133686 h 8.986915 8.986915 l 0.111428,9.034907 c 0.06128,4.969199 0.08852,9.057819 0.06051,9.085822 -0.028,0.028 -4.122286,0.07245 -9.098407,0.09878 l -9.047492,0.04787 z"
         id="path10-5-2-5-5-8-8-2-7-9-9-6-1-7-9-5-9-9-7-1-1-0"
         transform="scale(0.26458333)" />
      <path
         style="fill:#00ffff;fill-opacity:1;stroke:#000000;stroke-width:0.160946;stroke-opacity:1"
         d="m 57.055141,53.175694 c -1.21e-4,-1.495516 -0.04811,-5.598041 -0.106635,-9.116723 l -0.106414,-6.397604 h 9.36103 9.36103 v 9.012976 9.012977 l -8.16801,0.0011 c -4.492405,6.29e-4 -8.656883,0.04731 -9.254395,0.103746 l -1.086386,0.102603 z"
         id="path11-00-6-0-4-1-9-4-5-0-7-1-7-7-8-1-4-5-3-0-1-7"
         transform="scale(0.26458333)" />
      <path
         style="fill:#00ffff;fill-opacity:1;stroke:#000000;stroke-width:0.160946;stroke-opacity:1"
         d="m 57.162215,69.086075 c -0.05853,-3.518682 -0.106513,-7.671709 -0.106634,-9.228948 l -2.2e-4,-2.831344 3.017738,-0.105466 c 1.659755,-0.05801 5.824233,-0.10567 9.254395,-0.10592 l 6.236658,-4.55e-4 v 9.334869 9.334868 H 66.416391 57.26863 Z"
         id="path12-8-6-6-7-4-4-6-3-7-5-5-4-0-3-2-9-3-8-2-5-1"
         transform="scale(0.26458333)" />
      <path
         style="fill:#00ffff;fill-opacity:1;stroke:#000000;stroke-width:0.160946;stroke-opacity:1"
         d="m 37.74184,66.333857 v -9.149822 l 1.473239,-0.104574 c 0.810282,-0.05752 4.902334,-0.104573 9.09345,-0.104573 h 7.62021 l 3.3e-4,5.029563 c 1.8e-4,2.766259 0.04802,6.930737 0.106301,9.254395 l 0.105974,4.224833 H 46.941592 37.74184 Z"
         id="path13-37-5-5-9-8-7-7-9-6-5-9-5-9-7-3-6-1-7-4-2-6"
         transform="scale(0.26458333)" />
    </g>
    <g
       id="g13-11-3-3-9-7-9-5-2-5-1-4-9-3-7-7-8-6-1-1-7-7-6"
       transform="translate(380.3371,120.33454)">
      <g
         id="g4-6-7-4-5-0-8-3-0-9-9-7-4-2-6-6-2-9-9-4-9-7-0">
        <rect
           style="fill:none;fill-opacity:1;stroke:#000000;stroke-width:0.271379;stroke-opacity:1"
           id="rect4-1-7-8-7-4-4-8-7-8-6-9-3-2-8-5-6-0-0-1-4-2-2"
           width="10.311954"
           height="10.311954"
           x="9.8276854"
           y="9.8276854" />
        <path
           style="fill:none;fill-opacity:1;stroke:#000000;stroke-width:0.261976;stroke-opacity:1"
           d="m 14.902968,9.6664737 0.08199,10.5812433"
           id="path4-18-5-6-6-1-5-5-7-3-7-5-9-1-2-0-0-0-6-4-7-0-8" />
        <path
           style="fill:none;fill-opacity:1;stroke:#000000;stroke-width:0.261976;stroke-opacity:1"
           d="M 20.245157,14.86928 9.6639136,14.95127"
           id="path4-7-11-1-1-8-0-8-1-9-0-8-5-5-4-9-4-3-3-1-6-0-9-4" />
      </g>
      <path
         style="fill:#00ffff;fill-opacity:1;stroke:#000000;stroke-width:0.160946;stroke-opacity:1"
         d="m 37.741776,46.795053 6.4e-5,-9.133686 h 8.986915 8.986915 l 0.111428,9.034907 c 0.06128,4.969199 0.08852,9.057819 0.06051,9.085822 -0.028,0.028 -4.122286,0.07245 -9.098407,0.09878 l -9.047492,0.04787 z"
         id="path10-5-2-5-5-8-8-2-7-9-9-6-1-7-9-5-9-9-7-1-1-0-4"
         transform="scale(0.26458333)" />
      <path
         style="fill:#00ffff;fill-opacity:1;stroke:#000000;stroke-width:0.160946;stroke-opacity:1"
         d="m 57.055141,53.175694 c -1.21e-4,-1.495516 -0.04811,-5.598041 -0.106635,-9.116723 l -0.106414,-6.397604 h 9.36103 9.36103 v 9.012976 9.012977 l -8.16801,0.0011 c -4.492405,6.29e-4 -8.656883,0.04731 -9.254395,0.103746 l -1.086386,0.102603 z"
         id="path11-00-6-0-4-1-9-4-5-0-7-1-7-7-8-1-4-5-3-0-1-7-8"
         transform="scale(0.26458333)" />
      <path
         style="fill:#00ffff;fill-opacity:1;stroke:#000000;stroke-width:0.160946;stroke-opacity:1"
         d="m 57.162215,69.086075 c -0.05853,-3.518682 -0.106513,-7.671709 -0.106634,-9.228948 l -2.2e-4,-2.831344 3.017738,-0.105466 c 1.659755,-0.05801 5.824233,-0.10567 9.254395,-0.10592 l 6.236658,-4.55e-4 v 9.334869 9.334868 H 66.416391 57.26863 Z"
         id="path12-8-6-6-7-4-4-6-3-7-5-5-4-0-3-2-9-3-8-2-5-1-0"
         transform="scale(0.26458333)" />
      <path
         style="fill:#00ffff;fill-opacity:1;stroke:#000000;stroke-width:0.160946;stroke-opacity:1"
         d="m 37.74184,66.333857 v -9.149822 l 1.473239,-0.104574 c 0.810282,-0.05752 4.902334,-0.104573 9.09345,-0.104573 h 7.62021 l 3.3e-4,5.029563 c 1.8e-4,2.766259 0.04802,6.930737 0.106301,9.254395 l 0.105974,4.224833 H 46.941592 37.74184 Z"
         id="path13-37-5-5-9-8-7-7-9-6-5-9-5-9-7-3-6-1-7-4-2-6-1"
         transform="scale(0.26458333)" />
    </g>
    <g
       id="g13-4"
       transform="translate(-0.13789865,109.39704)">
      <g
         id="g4-5">
        <rect
           style="fill:none;fill-opacity:1;stroke:#000000;stroke-width:0.271379;stroke-opacity:1"
           id="rect4-7"
           width="10.311954"
           height="10.311954"
           x="9.8276854"
           y="9.8276854" />
        <path
           style="fill:none;fill-opacity:1;stroke:#000000;stroke-width:0.261976;stroke-opacity:1"
           d="m 14.902968,9.6664737 0.08199,10.5812433"
           id="path4-1" />
        <path
           style="fill:none;fill-opacity:1;stroke:#000000;stroke-width:0.261976;stroke-opacity:1"
           d="M 20.245157,14.86928 9.6639136,14.95127"
           id="path4-7-0" />
      </g>
      <path
         style="fill:#00ffff;fill-opacity:1;stroke:#000000;stroke-width:0.160946;stroke-opacity:1"
         d="m 37.741776,46.795053 6.4e-5,-9.133686 h 8.986915 8.986915 l 0.111428,9.034907 c 0.06128,4.969199 0.08852,9.057819 0.06051,9.085822 -0.028,0.028 -4.122286,0.07245 -9.098407,0.09878 l -9.047492,0.04787 z"
         id="path10-6"
         transform="scale(0.26458333)" />
      <path
         style="fill:#00ffff;fill-opacity:1;stroke:#000000;stroke-width:0.160946;stroke-opacity:1"
         d="m 57.055141,53.175694 c -1.21e-4,-1.495516 -0.04811,-5.598041 -0.106635,-9.116723 l -0.106414,-6.397604 h 9.36103 9.36103 v 9.012976 9.012977 l -8.16801,0.0011 c -4.492405,6.29e-4 -8.656883,0.04731 -9.254395,0.103746 l -1.086386,0.102603 z"
         id="path11-0"
         transform="scale(0.26458333)" />
      <path
         style="fill:#00ffff;fill-opacity:1;stroke:#000000;stroke-width:0.160946;stroke-opacity:1"
         d="m 57.162215,69.086075 c -0.05853,-3.518682 -0.106513,-7.671709 -0.106634,-9.228948 l -2.2e-4,-2.831344 3.017738,-0.105466 c 1.659755,-0.05801 5.824233,-0.10567 9.254395,-0.10592 l 6.236658,-4.55e-4 v 9.334869 9.334868 H 66.416391 57.26863 Z"
         id="path12-3"
         transform="scale(0.26458333)" />
      <path
         style="fill:#00ffff;fill-opacity:1;stroke:#000000;stroke-width:0.160946;stroke-opacity:1"
         d="m 37.74184,66.333857 v -9.149822 l 1.473239,-0.104574 c 0.810282,-0.05752 4.902334,-0.104573 9.09345,-0.104573 h 7.62021 l 3.3e-4,5.029563 c 1.8e-4,2.766259 0.04802,6.930737 0.106301,9.254395 l 0.105974,4.224833 H 46.941592 37.74184 Z"
         id="path13-3"
         transform="scale(0.26458333)" />
    </g>
    <g
       id="g13-4-1"
       transform="translate(35.316268,109.39704)">
      <g
         id="g4-5-7">
        <rect
           style="fill:none;fill-opacity:1;stroke:#000000;stroke-width:0.271379;stroke-opacity:1"
           id="rect4-7-4"
           width="10.311954"
           height="10.311954"
           x="9.8276854"
           y="9.8276854" />
        <path
           style="fill:none;fill-opacity:1;stroke:#000000;stroke-width:0.261976;stroke-opacity:1"
           d="m 14.902968,9.6664737 0.08199,10.5812433"
           id="path4-1-5" />
        <path
           style="fill:none;fill-opacity:1;stroke:#000000;stroke-width:0.261976;stroke-opacity:1"
           d="M 20.245157,14.86928 9.6639136,14.95127"
           id="path4-7-0-1" />
      </g>
      <path
         style="fill:#00ffff;fill-opacity:1;stroke:#000000;stroke-width:0.160946;stroke-opacity:1"
         d="m 37.741776,46.795053 6.4e-5,-9.133686 h 8.986915 8.986915 l 0.111428,9.034907 c 0.06128,4.969199 0.08852,9.057819 0.06051,9.085822 -0.028,0.028 -4.122286,0.07245 -9.098407,0.09878 l -9.047492,0.04787 z"
         id="path10-6-7"
         transform="scale(0.26458333)" />
      <path
         style="fill:#00ffff;fill-opacity:1;stroke:#000000;stroke-width:0.160946;stroke-opacity:1"
         d="m 57.055141,53.175694 c -1.21e-4,-1.495516 -0.04811,-5.598041 -0.106635,-9.116723 l -0.106414,-6.397604 h 9.36103 9.36103 v 9.012976 9.012977 l -8.16801,0.0011 c -4.492405,6.29e-4 -8.656883,0.04731 -9.254395,0.103746 l -1.086386,0.102603 z"
         id="path11-0-8"
         transform="scale(0.26458333)" />
      <path
         style="fill:#00ffff;fill-opacity:1;stroke:#000000;stroke-width:0.160946;stroke-opacity:1"
         d="m 57.162215,69.086075 c -0.05853,-3.518682 -0.106513,-7.671709 -0.106634,-9.228948 l -2.2e-4,-2.831344 3.017738,-0.105466 c 1.659755,-0.05801 5.824233,-0.10567 9.254395,-0.10592 l 6.236658,-4.55e-4 v 9.334869 9.334868 H 66.416391 57.26863 Z"
         id="path12-3-2"
         transform="scale(0.26458333)" />
      <path
         style="fill:#00ffff;fill-opacity:1;stroke:#000000;stroke-width:0.160946;stroke-opacity:1"
         d="m 37.74184,66.333857 v -9.149822 l 1.473239,-0.104574 c 0.810282,-0.05752 4.902334,-0.104573 9.09345,-0.104573 h 7.62021 l 3.3e-4,5.029563 c 1.8e-4,2.766259 0.04802,6.930737 0.106301,9.254395 l 0.105974,4.224833 H 46.941592 37.74184 Z"
         id="path13-3-5"
         transform="scale(0.26458333)" />
    </g>
    <g
       id="g13-1"
       transform="translate(35.316268,80.292875)">
      <g
         id="g4-4">
        <rect
           style="fill:none;fill-opacity:1;stroke:#000000;stroke-width:0.271379;stroke-opacity:1"
           id="rect4-0"
           width="10.311954"
           height="10.311954"
           x="9.8276854"
           y="9.8276854" />
        <path
           style="fill:none;fill-opacity:1;stroke:#000000;stroke-width:0.261976;stroke-opacity:1"
           d="m 14.902968,9.6664737 0.08199,10.5812433"
           id="path4-8" />
        <path
           style="fill:none;fill-opacity:1;stroke:#000000;stroke-width:0.261976;stroke-opacity:1"
           d="M 20.245157,14.86928 9.6639136,14.95127"
           id="path4-7-1" />
      </g>
      <path
         style="fill:#00ffff;fill-opacity:1;stroke:#000000;stroke-width:0.160946;stroke-opacity:1"
         d="m 37.741776,46.795053 6.4e-5,-9.133686 h 8.986915 8.986915 l 0.111428,9.034907 c 0.06128,4.969199 0.08852,9.057819 0.06051,9.085822 -0.028,0.028 -4.122286,0.07245 -9.098407,0.09878 l -9.047492,0.04787 z"
         id="path10-0"
         transform="scale(0.26458333)" />
      <path
         style="fill:#00ffff;fill-opacity:1;stroke:#000000;stroke-width:0.160946;stroke-opacity:1"
         d="m 57.055141,53.175694 c -1.21e-4,-1.495516 -0.04811,-5.598041 -0.106635,-9.116723 l -0.106414,-6.397604 h 9.36103 9.36103 v 9.012976 9.012977 l -8.16801,0.0011 c -4.492405,6.29e-4 -8.656883,0.04731 -9.254395,0.103746 l -1.086386,0.102603 z"
         id="path11-3"
         transform="scale(0.26458333)" />
      <path
         style="fill:#00ffff;fill-opacity:1;stroke:#000000;stroke-width:0.160946;stroke-opacity:1"
         d="m 57.162215,69.086075 c -0.05853,-3.518682 -0.106513,-7.671709 -0.106634,-9.228948 l -2.2e-4,-2.831344 3.017738,-0.105466 c 1.659755,-0.05801 5.824233,-0.10567 9.254395,-0.10592 l 6.236658,-4.55e-4 v 9.334869 9.334868 H 66.416391 57.26863 Z"
         id="path12-1"
         transform="scale(0.26458333)" />
      <path
         style="fill:#00ffff;fill-opacity:1;stroke:#000000;stroke-width:0.160946;stroke-opacity:1"
         d="m 37.74184,66.333857 v -9.149822 l 1.473239,-0.104574 c 0.810282,-0.05752 4.902334,-0.104573 9.09345,-0.104573 h 7.62021 l 3.3e-4,5.029563 c 1.8e-4,2.766259 0.04802,6.930737 0.106301,9.254395 l 0.105974,4.224833 H 46.941592 37.74184 Z"
         id="path13-1"
         transform="scale(0.26458333)" />
    </g>
    <g
       id="g15"
       transform="translate(-11.211984,104.50075)">
      <rect
         style="fill:none;fill-opacity:1;stroke:#000000;stroke-width:0.27162;stroke-opacity:1"
         id="rect3"
         width="10.311713"
         height="18.249212"
         x="39.129044"
         y="35.864231" />
      <ellipse
         style="fill:#502d16;fill-opacity:1;stroke:#000000;stroke-width:0.2;stroke-dasharray:none;stroke-opacity:1"
         id="path14"
         cx="47.682907"
         cy="45.297642"
         rx="0.601888"
         ry="0.57959586" />
      <path
         style="fill:#aa4400;fill-opacity:1;stroke:#000000;stroke-width:0;stroke-dasharray:none;stroke-opacity:1"
         d="m 148.53943,170.02414 v -33.87002 h 18.87285 18.87284 v 33.87002 33.87003 h -18.87284 -18.87285 z m 32.97717,3.03996 c 1.95025,-1.18913 1.03344,-4.051 -1.29775,-4.051 -0.88652,0 -1.61371,0.3804 -2.02891,1.06135 -0.91997,1.5088 0.18649,3.31858 2.02891,3.31858 0.4555,0 0.9737,-0.13134 1.29775,-0.32893 z"
         id="path15"
         transform="scale(0.26458333)" />
    </g>
    <g
       id="g15-8"
       transform="translate(46.996349,104.50075)">
      <rect
         style="fill:none;fill-opacity:1;stroke:#000000;stroke-width:0.27162;stroke-opacity:1"
         id="rect3-9"
         width="10.311713"
         height="18.249212"
         x="39.129044"
         y="35.864231" />
      <ellipse
         style="fill:#502d16;fill-opacity:1;stroke:#000000;stroke-width:0.2;stroke-dasharray:none;stroke-opacity:1"
         id="path14-1"
         cx="47.682907"
         cy="45.297642"
         rx="0.601888"
         ry="0.57959586" />
      <path
         style="fill:#aa4400;fill-opacity:1;stroke:#000000;stroke-width:0;stroke-dasharray:none;stroke-opacity:1"
         d="m 148.53943,170.02414 v -33.87002 h 18.87285 18.87284 v 33.87002 33.87003 h -18.87284 -18.87285 z m 32.97717,3.03996 c 1.95025,-1.18913 1.03344,-4.051 -1.29775,-4.051 -0.88652,0 -1.61371,0.3804 -2.02891,1.06135 -0.91997,1.5088 0.18649,3.31858 2.02891,3.31858 0.4555,0 0.9737,-0.13134 1.29775,-0.32893 z"
         id="path15-2"
         transform="scale(0.26458333)" />
    </g>
    <g
       id="g15-8-0"
       transform="translate(94.62135,104.50075)">
      <rect
         style="fill:none;fill-opacity:1;stroke:#000000;stroke-width:0.27162;stroke-opacity:1"
         id="rect3-9-8"
         width="10.311713"
         height="18.249212"
         x="39.129044"
         y="35.864231" />
      <ellipse
         style="fill:#502d16;fill-opacity:1;stroke:#000000;stroke-width:0.2;stroke-dasharray:none;stroke-opacity:1"
         id="path14-1-1"
         cx="47.682907"
         cy="45.297642"
         rx="0.601888"
         ry="0.57959586" />
      <path
         style="fill:#aa4400;fill-opacity:1;stroke:#000000;stroke-width:0;stroke-dasharray:none;stroke-opacity:1"
         d="m 148.53943,170.02414 v -33.87002 h 18.87285 18.87284 v 33.87002 33.87003 h -18.87284 -18.87285 z m 32.97717,3.03996 c 1.95025,-1.18913 1.03344,-4.051 -1.29775,-4.051 -0.88652,0 -1.61371,0.3804 -2.02891,1.06135 -0.91997,1.5088 0.18649,3.31858 2.02891,3.31858 0.4555,0 0.9737,-0.13134 1.29775,-0.32893 z"
         id="path15-2-4"
         transform="scale(0.26458333)" />
    </g>
    <g
       id="g15-8-0-2"
       transform="translate(158.12135,104.50075)">
      <rect
         style="fill:none;fill-opacity:1;stroke:#000000;stroke-width:0.27162;stroke-opacity:1"
         id="rect3-9-8-3"
         width="10.311713"
         height="18.249212"
         x="39.129044"
         y="35.864231" />
      <ellipse
         style="fill:#502d16;fill-opacity:1;stroke:#000000;stroke-width:0.2;stroke-dasharray:none;stroke-opacity:1"
         id="path14-1-1-5"
         cx="47.682907"
         cy="45.297642"
         rx="0.601888"
         ry="0.57959586" />
      <path
         style="fill:#aa4400;fill-opacity:1;stroke:#000000;stroke-width:0;stroke-dasharray:none;stroke-opacity:1"
         d="m 148.53943,170.02414 v -33.87002 h 18.87285 18.87284 v 33.87002 33.87003 h -18.87284 -18.87285 z m 32.97717,3.03996 c 1.95025,-1.18913 1.03344,-4.051 -1.29775,-4.051 -0.88652,0 -1.61371,0.3804 -2.02891,1.06135 -0.91997,1.5088 0.18649,3.31858 2.02891,3.31858 0.4555,0 0.9737,-0.13134 1.29775,-0.32893 z"
         id="path15-2-4-9"
         transform="scale(0.26458333)" />
    </g>
    <g
       id="g15-8-0-2-9"
       transform="translate(211.03802,104.50075)">
      <rect
         style="fill:none;fill-opacity:1;stroke:#000000;stroke-width:0.27162;stroke-opacity:1"
         id="rect3-9-8-3-0"
         width="10.311713"
         height="18.249212"
         x="39.129044"
         y="35.864231" />
      <ellipse
         style="fill:#502d16;fill-opacity:1;stroke:#000000;stroke-width:0.2;stroke-dasharray:none;stroke-opacity:1"
         id="path14-1-1-5-4"
         cx="47.682907"
         cy="45.297642"
         rx="0.601888"
         ry="0.57959586" />
      <path
         style="fill:#aa4400;fill-opacity:1;stroke:#000000;stroke-width:0;stroke-dasharray:none;stroke-opacity:1"
         d="m 148.53943,170.02414 v -33.87002 h 18.87285 18.87284 v 33.87002 33.87003 h -18.87284 -18.87285 z m 32.97717,3.03996 c 1.95025,-1.18913 1.03344,-4.051 -1.29775,-4.051 -0.88652,0 -1.61371,0.3804 -2.02891,1.06135 -0.91997,1.5088 0.18649,3.31858 2.02891,3.31858 0.4555,0 0.9737,-0.13134 1.29775,-0.32893 z"
         id="path15-2-4-9-0"
         transform="scale(0.26458333)" />
    </g>
    <g
       id="g15-8-0-2-9-9"
       transform="translate(266.60052,104.50075)">
      <rect
         style="fill:none;fill-opacity:1;stroke:#000000;stroke-width:0.27162;stroke-opacity:1"
         id="rect3-9-8-3-0-0"
         width="10.311713"
         height="18.249212"
         x="39.129044"
         y="35.864231" />
      <ellipse
         style="fill:#502d16;fill-opacity:1;stroke:#000000;stroke-width:0.2;stroke-dasharray:none;stroke-opacity:1"
         id="path14-1-1-5-4-2"
         cx="47.682907"
         cy="45.297642"
         rx="0.601888"
         ry="0.57959586" />
      <path
         style="fill:#aa4400;fill-opacity:1;stroke:#000000;stroke-width:0;stroke-dasharray:none;stroke-opacity:1"
         d="m 148.53943,170.02414 v -33.87002 h 18.87285 18.87284 v 33.87002 33.87003 h -18.87284 -18.87285 z m 32.97717,3.03996 c 1.95025,-1.18913 1.03344,-4.051 -1.29775,-4.051 -0.88652,0 -1.61371,0.3804 -2.02891,1.06135 -0.91997,1.5088 0.18649,3.31858 2.02891,3.31858 0.4555,0 0.9737,-0.13134 1.29775,-0.32893 z"
         id="path15-2-4-9-0-1"
         transform="scale(0.26458333)" />
    </g>
    <g
       id="g15-8-0-2-9-9-2"
       transform="translate(302.31927,104.50075)">
      <rect
         style="fill:none;fill-opacity:1;stroke:#000000;stroke-width:0.27162;stroke-opacity:1"
         id="rect3-9-8-3-0-0-0"
         width="10.311713"
         height="18.249212"
         x="39.129044"
         y="35.864231" />
      <ellipse
         style="fill:#502d16;fill-opacity:1;stroke:#000000;stroke-width:0.2;stroke-dasharray:none;stroke-opacity:1"
         id="path14-1-1-5-4-2-3"
         cx="47.682907"
         cy="45.297642"
         rx="0.601888"
         ry="0.57959586" />
      <path
         style="fill:#aa4400;fill-opacity:1;stroke:#000000;stroke-width:0;stroke-dasharray:none;stroke-opacity:1"
         d="m 148.53943,170.02414 v -33.87002 h 18.87285 18.87284 v 33.87002 33.87003 h -18.87284 -18.87285 z m 32.97717,3.03996 c 1.95025,-1.18913 1.03344,-4.051 -1.29775,-4.051 -0.88652,0 -1.61371,0.3804 -2.02891,1.06135 -0.91997,1.5088 0.18649,3.31858 2.02891,3.31858 0.4555,0 0.9737,-0.13134 1.29775,-0.32893 z"
         id="path15-2-4-9-0-1-8"
         transform="scale(0.26458333)" />
    </g>
    <g
       id="g15-8-0-2-9-9-2-3"
       transform="translate(368.4651,104.50075)">
      <rect
         style="fill:none;fill-opacity:1;stroke:#000000;stroke-width:0.27162;stroke-opacity:1"
         id="rect3-9-8-3-0-0-0-2"
         width="10.311713"
         height="18.249212"
         x="39.129044"
         y="35.864231" />
      <ellipse
         style="fill:#502d16;fill-opacity:1;stroke:#000000;stroke-width:0.2;stroke-dasharray:none;stroke-opacity:1"
         id="path14-1-1-5-4-2-3-9"
         cx="47.682907"
         cy="45.297642"
         rx="0.601888"
         ry="0.57959586" />
      <path
         style="fill:#aa4400;fill-opacity:1;stroke:#000000;stroke-width:0;stroke-dasharray:none;stroke-opacity:1"
         d="m 148.53943,170.02414 v -33.87002 h 18.87285 18.87284 v 33.87002 33.87003 h -18.87284 -18.87285 z m 32.97717,3.03996 c 1.95025,-1.18913 1.03344,-4.051 -1.29775,-4.051 -0.88652,0 -1.61371,0.3804 -2.02891,1.06135 -0.91997,1.5088 0.18649,3.31858 2.02891,3.31858 0.4555,0 0.9737,-0.13134 1.29775,-0.32893 z"
         id="path15-2-4-9-0-1-8-7"
         transform="scale(0.26458333)" />
    </g>
    <path
       style="fill:#e9c6af;fill-opacity:1;stroke:#000000;stroke-width:0.863084;stroke-dasharray:none;stroke-opacity:1"
       d="M 1.7126828,450.43558 V 302.57396 H 125.02584 248.33901 v 147.86162 147.86161 h -51.38049 -51.38048 v -34.25366 -34.25365 h -20.5522 -20.55219 v 34.25365 34.25366 H 53.093167 1.7126828 Z M 77.070726,470.41687 V 449.86468 H 56.518532 35.966339 v 20.55219 20.5522 h 20.552193 20.552194 z m 133.589254,0 V 449.86468 H 190.10779 169.5556 v 20.55219 20.5522 h 20.55219 20.55219 z M 77.070726,359.66339 v -20.5522 H 56.518532 35.966339 v 20.5522 20.55219 h 20.552193 20.552194 z m 133.589254,0 v -20.5522 H 190.10779 169.5556 v 20.5522 20.55219 h 20.55219 20.55219 z"
       id="path16"
       transform="scale(0.26458333)" />
    <path
       style="fill:#e5ff80;fill-opacity:1;stroke:#000000;stroke-width:0.863084;stroke-dasharray:none;stroke-opacity:1"
       d="M 251.76437,450.43558 V 302.57396 h 88.48861 88.48861 v 147.86162 147.86161 h -31.39918 -31.39919 v -34.25366 -34.25365 h -20.55219 -20.55219 v 34.25365 34.25366 H 288.3016 251.76437 Z m 148.43251,-15.41415 v -20.55219 h -20.55219 -20.5522 v 20.55219 20.55219 h 20.5522 20.55219 z m -79.9252,-75.35804 v -20.5522 H 299.71949 279.1673 v 20.5522 20.55219 h 20.55219 20.55219 z"
       id="path17"
       transform="scale(0.26458333)" />
    <path
       style="fill:#ffeeaa;fill-opacity:1;stroke:#000000;stroke-width:0.863084;stroke-dasharray:none;stroke-opacity:1"
       d="M 431.02517,450.43558 V 302.57396 h 93.62666 93.62666 v 147.86162 147.86161 h -36.53723 -36.53724 v -34.25366 -34.25365 h -20.55219 -20.55219 v 34.25365 34.25366 H 467.5624 431.02517 Z m 74.21625,-15.41415 v -20.55219 h -20.55219 -20.55219 v 20.55219 20.55219 h 20.55219 20.55219 z m 100.4774,0 v -20.55219 h -20.5522 -20.55219 v 20.55219 20.55219 h 20.55219 20.5522 z m -100.4774,-94.76845 v -20.55219 h -20.55219 -20.55219 v 20.55219 20.5522 h 20.55219 20.55219 z m 100.4774,0 v -20.55219 h -20.5522 -20.55219 v 20.55219 20.5522 h 20.55219 20.5522 z"
       id="path18"
       transform="scale(0.26458333)" />
    <path
       style="fill:#ffaaaa;fill-opacity:1;stroke:#000000;stroke-width:0.863084;stroke-dasharray:none;stroke-opacity:1"
       d="M 621.70385,450.43558 V 302.57396 h 98.19382 98.19381 V 450.43558 598.29719 H 802.10644 786.1214 v -34.25366 -34.25365 h -21.12308 -21.12309 v 34.25365 34.25366 h -61.08569 -61.08569 z m 79.9252,61.08568 v -20.55219 h -20.55219 -20.5522 v 20.55219 20.55219 h 20.5522 20.55219 z m 94.76845,-75.35804 v -20.5522 h -20.55219 -20.5522 v 20.5522 20.55219 h 20.5522 20.55219 z m -94.76845,-94.76845 v -20.55219 h -20.55219 -20.5522 v 20.55219 20.55219 h 20.5522 20.55219 z"
       id="path19"
       transform="scale(0.26458333)" />
    <path
       style="fill:#ffccaa;fill-opacity:1;stroke:#000000;stroke-width:0.863084;stroke-dasharray:none;stroke-opacity:1"
       d="M 821.51685,450.43558 V 302.57396 h 138.15641 138.15644 v 147.86162 147.86161 h -55.9477 -55.9476 v -34.25366 -34.25365 h -20.5522 -20.55219 v 34.25365 34.25366 h -61.65658 -61.65658 z m 69.6491,41.67528 v -20.5522 h -20.5522 -20.55219 v 20.5522 20.55219 h 20.55219 20.5522 z m 188.39515,0 v -20.5522 h -20.5522 -20.5522 v 20.5522 20.55219 h 20.5522 20.5522 z m -93.6267,-75.35805 v -20.55219 h -20.5522 -20.55219 v 20.55219 20.5522 h 20.55219 20.5522 z m -94.76845,-75.35804 v -20.55219 h -20.5522 -20.55219 v 20.55219 20.55219 h 20.55219 20.5522 z m 188.39515,0 v -20.55219 h -20.5522 -20.5522 v 20.55219 20.55219 h 20.5522 20.5522 z"
       id="path20"
       transform="scale(0.26458333)" />
    <path
       style="fill:#aaffee;fill-opacity:1;stroke:#000000;stroke-width:0.863084;stroke-dasharray:none;stroke-opacity:1"
       d="M 1101.255,450.43558 V 302.57396 h 73.6454 73.6454 v 147.86162 147.86161 h -26.2612 -26.2611 v -34.25366 -34.25365 h -20.5522 -20.5522 v 34.25365 34.25366 h -26.832 -26.8321 z m 92.4849,3.99625 v -20.55219 h -20.5522 -20.5522 v 20.55219 20.5522 h 20.5522 20.5522 z m 0,-113.03706 v -20.55219 h -20.5522 -20.5522 v 20.55219 20.55219 h 20.5522 20.5522 z"
       id="path21"
       transform="scale(0.26458333)" />
    <path
       style="fill:#b7c8c4;fill-opacity:1;stroke:#000000;stroke-width:0.863084;stroke-dasharray:none;stroke-opacity:1"
       d="M 1251.9711,450.43558 V 302.57396 h 98.1938 98.1939 v 147.86162 147.86161 h -58.8022 -58.8021 v -34.25366 -34.25365 h -20.5522 -20.5522 v 34.25365 34.25366 h -18.8395 -18.8395 z m 167.8429,61.08568 v -20.55219 h -20.5522 -20.5522 v 20.55219 20.55219 h 20.5522 20.5522 z m -93.6266,-57.08943 v -20.55219 h -20.4712 -20.4711 l -0.3665,10.2761 c -0.2016,5.65185 -0.2016,14.90034 0,20.55219 l 0.3665,10.2761 h 20.4711 20.4712 z M 1419.814,398.4842 V 377.932 h -20.5522 -20.5522 v 20.5522 20.55219 h 20.5522 20.5522 z m -93.6266,-57.08943 v -20.55219 h -20.4712 -20.4711 l -0.3665,10.27609 c -0.2016,5.65186 -0.2016,14.90034 0,20.5522 l 0.3665,10.27609 h 20.4711 20.4712 z"
       id="path22"
       transform="scale(0.26458333)" />
    <path
       style="fill:#e9afaf;fill-opacity:1;stroke:#000000;stroke-width:0.863084;stroke-dasharray:none;stroke-opacity:1"
       d="M 1451.7841,450.43558 V 302.57396 h 73.0745 73.0744 v 147.86162 147.86161 h -8.5634 -8.5634 v -34.25366 -34.25365 h -20.5522 -20.5522 v 34.25365 34.25366 h -43.9588 -43.9589 z m 62.7984,61.08568 v -20.55219 h -20.5522 -20.5522 v 20.55219 20.55219 h 20.5522 20.5522 z m 57.0894,-170.12649 v -20.55219 h -20.5522 -20.5522 v 20.55219 20.55219 h 20.5522 20.5522 z"
       id="path23"
       transform="scale(0.26458333)" />
  </g>
</svg>
